<svg xmlns="http://www.w3.org/2000/svg" xmlns:xlink="http://www.w3.org/1999/xlink" xmlns:lucid="lucid" width="1760" height="1360"><g transform="translate(0 0)" lucid:page-tab-id="HWEp-vi-RSFO"><path d="M453.15 79a8 8 0 0 1 8-8h836.75a8 8 0 0 1 8 8v25.16a8 8 0 0 1-8 8H461.15a8 8 0 0 1-8-8z" stroke="#000" stroke-opacity="0" stroke-width="2" fill="#fff" fill-opacity="0"/><use xlink:href="#a" transform="matrix(1,0,0,1,457.1465527853429,75) translate(309.62801432291667 27.211126302083333)"/><use xlink:href="#b" transform="matrix(1,0,0,1,457.1465527853429,75) translate(429.35845052083334 27.211126302083333)"/><use xlink:href="#c" transform="matrix(1,0,0,1,457.1465527853429,75) translate(465.0334765625 27.211126302083333)"/><path d="M729.63 110.8H1039M729.65 110.8h-1.02M1038.96 110.8h1.03" stroke="#a9afb8" stroke-width="2" fill="none"/><path d="M453.15 120.16a8 8 0 0 1 8-8h837.7a8 8 0 0 1 8 8V123a8 8 0 0 1-8 8h-837.7a8 8 0 0 1-8-8z" stroke="#000" stroke-opacity="0" stroke-width="2" fill="#fff" fill-opacity="0"/><use xlink:href="#d" transform="matrix(1,0,0,1,457.1465527853434,116.15522395689881) translate(288.15262695312504 16.461006944444446)"/><use xlink:href="#e" transform="matrix(1,0,0,1,457.1465527853434,116.15522395689881) translate(338.97009006076394 16.461006944444446)"/><use xlink:href="#f" transform="matrix(1,0,0,1,457.1465527853434,116.15522395689881) translate(383.93896050347223 16.461006944444446)"/><use xlink:href="#g" transform="matrix(1,0,0,1,457.1465527853434,116.15522395689881) translate(404.94388237847227 16.461006944444446)"/><use xlink:href="#h" transform="matrix(1,0,0,1,457.1465527853434,116.15522395689881) translate(430.0608789062501 16.461006944444446)"/><use xlink:href="#i" transform="matrix(1,0,0,1,457.1465527853434,116.15522395689881) translate(442.7930289713542 16.461006944444446)"/><use xlink:href="#j" transform="matrix(1,0,0,1,457.1465527853434,116.15522395689881) translate(506.96084255642364 16.461006944444446)"/><use xlink:href="#k" transform="matrix(1,0,0,1,457.1465527853434,116.15522395689881) translate(529.4939002821181 16.461006944444446)"/><path d="M200 248.67h360v287H200z" stroke="#333" stroke-width="2" fill="#fff"/><path d="M200 286.44h360M200 476.4h360" stroke="#333" stroke-width="2" fill="none"/><use xlink:href="#l" transform="matrix(1,0,0,1,208,256.6657894005797) translate(151.9169921875 17.5478515625)"/><use xlink:href="#m" transform="matrix(1,0,0,1,212,294.4450862755797) translate(0 28.2099609375)"/><use xlink:href="#n" transform="matrix(1,0,0,1,212,294.4450862755797) translate(13.341796875 28.2099609375)"/><use xlink:href="#o" transform="matrix(1,0,0,1,212,294.4450862755797) translate(38.970703125 28.2099609375)"/><use xlink:href="#m" transform="matrix(1,0,0,1,212,294.4450862755797) translate(0 49.9892578125)"/><use xlink:href="#p" transform="matrix(1,0,0,1,212,294.4450862755797) translate(13.341796875 49.9892578125)"/><use xlink:href="#q" transform="matrix(1,0,0,1,212,294.4450862755797) translate(70.59375 49.9892578125)"/><use xlink:href="#m" transform="matrix(1,0,0,1,212,294.4450862755797) translate(0 71.7685546875)"/><use xlink:href="#r" transform="matrix(1,0,0,1,212,294.4450862755797) translate(13.341796875 71.7685546875)"/><use xlink:href="#s" transform="matrix(1,0,0,1,212,294.4450862755797) translate(106.59375 71.7685546875)"/><use xlink:href="#t" transform="matrix(1,0,0,1,212,294.4450862755797) translate(0 93.5478515625)"/><use xlink:href="#u" transform="matrix(1,0,0,1,212,294.4450862755797) translate(13.341796875 93.5478515625)"/><use xlink:href="#s" transform="matrix(1,0,0,1,212,294.4450862755797) translate(68.677734375 93.5478515625)"/><use xlink:href="#t" transform="matrix(1,0,0,1,212,294.4450862755797) translate(0 115.3271484375)"/><use xlink:href="#v" transform="matrix(1,0,0,1,212,294.4450862755797) translate(13.341796875 115.3271484375)"/><use xlink:href="#s" transform="matrix(1,0,0,1,212,294.4450862755797) translate(76.4296875 115.3271484375)"/><use xlink:href="#t" transform="matrix(1,0,0,1,212,294.4450862755797) translate(0 137.1064453125)"/><use xlink:href="#w" transform="matrix(1,0,0,1,212,294.4450862755797) translate(13.341796875 137.1064453125)"/><use xlink:href="#x" transform="matrix(1,0,0,1,212,294.4450862755797) translate(55.7138671875 137.1064453125)"/><use xlink:href="#t" transform="matrix(1,0,0,1,212,294.4450862755797) translate(0 158.8857421875)"/><use xlink:href="#y" transform="matrix(1,0,0,1,212,294.4450862755797) translate(13.341796875 158.8857421875)"/><use xlink:href="#z" transform="matrix(1,0,0,1,212,294.4450862755797) translate(127.1337890625 158.8857421875)"/><use xlink:href="#A" transform="matrix(1,0,0,1,212,484.4001644005797) translate(0 28.5478515625)"/><use xlink:href="#B" transform="matrix(1,0,0,1,212,484.4001644005797) translate(16.9716796875 28.5478515625)"/><use xlink:href="#C" transform="matrix(1,0,0,1,212,484.4001644005797) translate(76.0517578125 28.5478515625)"/><use xlink:href="#D" transform="matrix(1,0,0,1,212,484.4001644005797) translate(92.70703125 28.5478515625)"/><path d="M820 248.67h360v178H820z" stroke="#333" stroke-width="2" fill="#fff"/><path d="M820 286.44h360M820 367.5h360" stroke="#333" stroke-width="2" fill="none"/><use xlink:href="#E" transform="matrix(1,0,0,1,828,256.6657894005797) translate(133.29296875 17.5478515625)"/><use xlink:href="#F" transform="matrix(1,0,0,1,832,294.4450862755797) translate(0 28.658203125)"/><use xlink:href="#G" transform="matrix(1,0,0,1,832,294.4450862755797) translate(114.626953125 28.658203125)"/><use xlink:href="#H" transform="matrix(1,0,0,1,832,294.4450862755797) translate(179.6748046875 28.658203125)"/><use xlink:href="#I" transform="matrix(1,0,0,1,832,294.4450862755797) translate(196.646484375 28.658203125)"/><use xlink:href="#J" transform="matrix(1,0,0,1,832,294.4450862755797) translate(0 50.4375)"/><use xlink:href="#K" transform="matrix(1,0,0,1,832,294.4450862755797) translate(77.6337890625 50.4375)"/><use xlink:href="#H" transform="matrix(1,0,0,1,832,294.4450862755797) translate(149.1591796875 50.4375)"/><use xlink:href="#L" transform="matrix(1,0,0,1,832,294.4450862755797) translate(166.130859375 50.4375)"/><use xlink:href="#A" transform="matrix(1,0,0,1,832,375.5036800255797) translate(95.40673828125 28.5478515625)"/><use xlink:href="#B" transform="matrix(1,0,0,1,832,375.5036800255797) translate(112.37841796875 28.5478515625)"/><use xlink:href="#C" transform="matrix(1,0,0,1,832,375.5036800255797) translate(171.45849609375 28.5478515625)"/><use xlink:href="#M" transform="matrix(1,0,0,1,832,375.5036800255797) translate(188.11376953125 28.5478515625)"/><path d="M200 702.5h360v331H200z" stroke="#333" stroke-width="2" fill="#fff"/><path d="M200 740.28h360m-360 233.5h360" stroke="#333" stroke-width="2" fill="none"/><use xlink:href="#N" transform="matrix(1,0,0,1,208,710.5) translate(119.03271484375 17.5478515625)"/><g><use xlink:href="#t" transform="matrix(1,0,0,1,212,748.279296875) translate(0 28.4306640625)"/><use xlink:href="#O" transform="matrix(1,0,0,1,212,748.279296875) translate(13.341796875 28.4306640625)"/><use xlink:href="#P" transform="matrix(1,0,0,1,212,748.279296875) translate(38.970703125 28.4306640625)"/><use xlink:href="#t" transform="matrix(1,0,0,1,212,748.279296875) translate(0 50.2099609375)"/><use xlink:href="#Q" transform="matrix(1,0,0,1,212,748.279296875) translate(13.341796875 50.2099609375)"/><use xlink:href="#s" transform="matrix(1,0,0,1,212,748.279296875) translate(126.7294921875 50.2099609375)"/><use xlink:href="#t" transform="matrix(1,0,0,1,212,748.279296875) translate(0 71.9892578125)"/><use xlink:href="#R" transform="matrix(1,0,0,1,212,748.279296875) translate(13.341796875 71.9892578125)"/><use xlink:href="#s" transform="matrix(1,0,0,1,212,748.279296875) translate(119.00390625 71.9892578125)"/><use xlink:href="#t" transform="matrix(1,0,0,1,212,748.279296875) translate(0 93.7685546875)"/><use xlink:href="#S" transform="matrix(1,0,0,1,212,748.279296875) translate(13.341796875 93.7685546875)"/><use xlink:href="#T" transform="matrix(1,0,0,1,212,748.279296875) translate(122.677734375 93.7685546875)"/><use xlink:href="#t" transform="matrix(1,0,0,1,212,748.279296875) translate(0 115.5478515625)"/><use xlink:href="#U" transform="matrix(1,0,0,1,212,748.279296875) translate(13.341796875 115.5478515625)"/><use xlink:href="#T" transform="matrix(1,0,0,1,212,748.279296875) translate(78.275390625 115.5478515625)"/><use xlink:href="#t" transform="matrix(1,0,0,1,212,748.279296875) translate(0 137.3271484375)"/><use xlink:href="#V" transform="matrix(1,0,0,1,212,748.279296875) translate(13.341796875 137.3271484375)"/><use xlink:href="#W" transform="matrix(1,0,0,1,212,748.279296875) translate(61.0048828125 137.3271484375)"/><use xlink:href="#t" transform="matrix(1,0,0,1,212,748.279296875) translate(0 159.1064453125)"/><use xlink:href="#X" transform="matrix(1,0,0,1,212,748.279296875) translate(13.341796875 159.1064453125)"/><use xlink:href="#Y" transform="matrix(1,0,0,1,212,748.279296875) translate(85.3505859375 159.1064453125)"/><use xlink:href="#t" transform="matrix(1,0,0,1,212,748.279296875) translate(0 180.8857421875)"/><use xlink:href="#Z" transform="matrix(1,0,0,1,212,748.279296875) translate(13.341796875 180.8857421875)"/><use xlink:href="#aa" transform="matrix(1,0,0,1,212,748.279296875) translate(80.6396484375 180.8857421875)"/><use xlink:href="#t" transform="matrix(1,0,0,1,212,748.279296875) translate(0 202.6650390625)"/><use xlink:href="#ab" transform="matrix(1,0,0,1,212,748.279296875) translate(13.341796875 202.6650390625)"/><use xlink:href="#ac" transform="matrix(1,0,0,1,212,748.279296875) translate(94.271484375 202.6650390625)"/></g><g><use xlink:href="#A" transform="matrix(1,0,0,1,212,981.79296875) translate(0 28.5478515625)"/><use xlink:href="#B" transform="matrix(1,0,0,1,212,981.79296875) translate(16.9716796875 28.5478515625)"/><use xlink:href="#C" transform="matrix(1,0,0,1,212,981.79296875) translate(76.0517578125 28.5478515625)"/><use xlink:href="#M" transform="matrix(1,0,0,1,212,981.79296875) translate(92.70703125 28.5478515625)"/></g><path d="M820 480h360v287H820z" stroke="#333" stroke-width="2" fill="#fff"/><path d="M820 517.78h360M820 707.73h360" stroke="#333" stroke-width="2" fill="none"/><g><use xlink:href="#ad" transform="matrix(1,0,0,1,828,488) translate(147.20166015625 17.5478515625)"/></g><g><use xlink:href="#t" transform="matrix(1,0,0,1,832,525.779296875) translate(0 28.2099609375)"/><use xlink:href="#O" transform="matrix(1,0,0,1,832,525.779296875) translate(13.341796875 28.2099609375)"/><use xlink:href="#P" transform="matrix(1,0,0,1,832,525.779296875) translate(38.970703125 28.2099609375)"/><use xlink:href="#t" transform="matrix(1,0,0,1,832,525.779296875) translate(0 49.9892578125)"/><use xlink:href="#ae" transform="matrix(1,0,0,1,832,525.779296875) translate(13.341796875 49.9892578125)"/><use xlink:href="#s" transform="matrix(1,0,0,1,832,525.779296875) translate(120.1904296875 49.9892578125)"/><use xlink:href="#t" transform="matrix(1,0,0,1,832,525.779296875) translate(0 71.7685546875)"/><use xlink:href="#af" transform="matrix(1,0,0,1,832,525.779296875) translate(13.341796875 71.7685546875)"/><use xlink:href="#ag" transform="matrix(1,0,0,1,832,525.779296875) translate(71.138671875 71.7685546875)"/><use xlink:href="#t" transform="matrix(1,0,0,1,832,525.779296875) translate(0 93.5478515625)"/><use xlink:href="#ah" transform="matrix(1,0,0,1,832,525.779296875) translate(13.341796875 93.5478515625)"/><use xlink:href="#ag" transform="matrix(1,0,0,1,832,525.779296875) translate(108.8876953125 93.5478515625)"/><use xlink:href="#t" transform="matrix(1,0,0,1,832,525.779296875) translate(0 115.3271484375)"/><use xlink:href="#ai" transform="matrix(1,0,0,1,832,525.779296875) translate(13.341796875 115.3271484375)"/><use xlink:href="#ag" transform="matrix(1,0,0,1,832,525.779296875) translate(103.9482421875 115.3271484375)"/><use xlink:href="#t" transform="matrix(1,0,0,1,832,525.779296875) translate(0 137.1064453125)"/><use xlink:href="#aj" transform="matrix(1,0,0,1,832,525.779296875) translate(13.341796875 137.1064453125)"/><use xlink:href="#W" transform="matrix(1,0,0,1,832,525.779296875) translate(75.849609375 137.1064453125)"/><use xlink:href="#t" transform="matrix(1,0,0,1,832,525.779296875) translate(0 158.8857421875)"/><use xlink:href="#y" transform="matrix(1,0,0,1,832,525.779296875) translate(13.341796875 158.8857421875)"/><use xlink:href="#ak" transform="matrix(1,0,0,1,832,525.779296875) translate(127.1337890625 158.8857421875)"/></g><g><use xlink:href="#A" transform="matrix(1,0,0,1,832,715.734375) translate(0 28.5478515625)"/><use xlink:href="#B" transform="matrix(1,0,0,1,832,715.734375) translate(16.9716796875 28.5478515625)"/><use xlink:href="#C" transform="matrix(1,0,0,1,832,715.734375) translate(76.0517578125 28.5478515625)"/><use xlink:href="#M" transform="matrix(1,0,0,1,832,715.734375) translate(92.70703125 28.5478515625)"/></g><path d="M1080 860h360v243h-360z" stroke="#333" stroke-width="2" fill="#fff"/><path d="M1080 897.78h360m-360 146.4h360" stroke="#333" stroke-width="2" fill="none"/><g><use xlink:href="#al" transform="matrix(1,0,0,1,1088,868) translate(138.50048828125 17.5478515625)"/></g><g><use xlink:href="#t" transform="matrix(1,0,0,1,1092,905.779296875) translate(0 28.4892578125)"/><use xlink:href="#O" transform="matrix(1,0,0,1,1092,905.779296875) translate(13.341796875 28.4892578125)"/><use xlink:href="#P" transform="matrix(1,0,0,1,1092,905.779296875) translate(38.970703125 28.4892578125)"/><use xlink:href="#t" transform="matrix(1,0,0,1,1092,905.779296875) translate(0 50.2685546875)"/><use xlink:href="#am" transform="matrix(1,0,0,1,1092,905.779296875) translate(13.341796875 50.2685546875)"/><use xlink:href="#s" transform="matrix(1,0,0,1,1092,905.779296875) translate(100.5205078125 50.2685546875)"/><use xlink:href="#t" transform="matrix(1,0,0,1,1092,905.779296875) translate(0 72.0478515625)"/><use xlink:href="#an" transform="matrix(1,0,0,1,1092,905.779296875) translate(13.341796875 72.0478515625)"/><use xlink:href="#ao" transform="matrix(1,0,0,1,1092,905.779296875) translate(47.6982421875 72.0478515625)"/><use xlink:href="#t" transform="matrix(1,0,0,1,1092,905.779296875) translate(0 93.8271484375)"/><use xlink:href="#ap" transform="matrix(1,0,0,1,1092,905.779296875) translate(13.341796875 93.8271484375)"/><use xlink:href="#aq" transform="matrix(1,0,0,1,1092,905.779296875) translate(125.0859375 93.8271484375)"/><use xlink:href="#t" transform="matrix(1,0,0,1,1092,905.779296875) translate(0 115.6064453125)"/><use xlink:href="#aj" transform="matrix(1,0,0,1,1092,905.779296875) translate(13.341796875 115.6064453125)"/><use xlink:href="#ar" transform="matrix(1,0,0,1,1092,905.779296875) translate(75.849609375 115.6064453125)"/></g><g><use xlink:href="#A" transform="matrix(1,0,0,1,1092,1052.17578125) translate(0 28.5478515625)"/><use xlink:href="#B" transform="matrix(1,0,0,1,1092,1052.17578125) translate(16.9716796875 28.5478515625)"/><use xlink:href="#C" transform="matrix(1,0,0,1,1092,1052.17578125) translate(76.0517578125 28.5478515625)"/><use xlink:href="#M" transform="matrix(1,0,0,1,1092,1052.17578125) translate(92.70703125 28.5478515625)"/></g><path d="M1306.85 480.5h360v222h-360z" stroke="#333" stroke-width="2" fill="#fff"/><path d="M1306.85 518.28h360m-360 124.62h360" stroke="#333" stroke-width="2" fill="none"/><g><use xlink:href="#as" transform="matrix(1,0,0,1,1314.8534472146566,488.5) translate(153.4638671875 17.5478515625)"/></g><g><use xlink:href="#t" transform="matrix(1,0,0,1,1318.8534472146566,526.279296875) translate(0 28.37890625)"/><use xlink:href="#O" transform="matrix(1,0,0,1,1318.8534472146566,526.279296875) translate(13.341796875 28.37890625)"/><use xlink:href="#P" transform="matrix(1,0,0,1,1318.8534472146566,526.279296875) translate(38.970703125 28.37890625)"/><use xlink:href="#t" transform="matrix(1,0,0,1,1318.8534472146566,526.279296875) translate(0 50.158203125)"/><use xlink:href="#at" transform="matrix(1,0,0,1,1318.8534472146566,526.279296875) translate(13.341796875 50.158203125)"/><use xlink:href="#s" transform="matrix(1,0,0,1,1318.8534472146566,526.279296875) translate(110.5927734375 50.158203125)"/><use xlink:href="#t" transform="matrix(1,0,0,1,1318.8534472146566,526.279296875) translate(0 71.9375)"/><use xlink:href="#au" transform="matrix(1,0,0,1,1318.8534472146566,526.279296875) translate(13.341796875 71.9375)"/><use xlink:href="#s" transform="matrix(1,0,0,1,1318.8534472146566,526.279296875) translate(156.076171875 71.9375)"/><use xlink:href="#t" transform="matrix(1,0,0,1,1318.8534472146566,526.279296875) translate(0 93.716796875)"/><use xlink:href="#an" transform="matrix(1,0,0,1,1318.8534472146566,526.279296875) translate(13.341796875 93.716796875)"/><use xlink:href="#av" transform="matrix(1,0,0,1,1318.8534472146566,526.279296875) translate(47.6982421875 93.716796875)"/></g><g><use xlink:href="#A" transform="matrix(1,0,0,1,1318.8534472146566,650.896484375) translate(0 28.5478515625)"/><use xlink:href="#B" transform="matrix(1,0,0,1,1318.8534472146566,650.896484375) translate(16.9716796875 28.5478515625)"/><use xlink:href="#C" transform="matrix(1,0,0,1,1318.8534472146566,650.896484375) translate(76.0517578125 28.5478515625)"/><use xlink:href="#M" transform="matrix(1,0,0,1,1318.8534472146566,650.896484375) translate(92.70703125 28.5478515625)"/></g><path d="M561.5 392.17H589a12 12 0 0 0 12-12v-160.5a12 12 0 0 1 12-12h376.33a12 12 0 0 1 12 12v11.6" stroke="#333" fill="none"/><path d="M561.5 392.64h-.5v-.95h.5z" stroke="#333" stroke-width=".05" fill="#333"/><path d="M1001.33 246.05l-4.63-14.27h9.27z" stroke="#333" fill="#333"/><path d="M198.5 392.17H171a12 12 0 0 0-12 12V649.5a12 12 0 0 0 12 12h197a12 12 0 0 1 12 12v11.62" stroke="#333" fill="none"/><path d="M199 392.64h-.5v-.95h.5z" stroke="#333" stroke-width=".05" fill="#333"/><path d="M380 699.88l-4.63-14.26h9.26z" stroke="#333" fill="#333"/><path d="M198.5 868H152a12 12 0 0 1-12-12V219.67a12 12 0 0 1 12-12h216a12 12 0 0 1 12 12v11.6" stroke="#333" fill="none"/><path d="M199 868.48h-.5v-.96h.5z" stroke="#333" stroke-width=".05" fill="#333"/><path d="M380 246.05l-4.63-14.27h9.26z" stroke="#333" fill="#333"/><path d="M818.5 623.5H742a12 12 0 0 1-12-12V219.67a12 12 0 0 0-12-12H392a12 12 0 0 0-12 12v11.6" stroke="#333" fill="none"/><path d="M819 623.98h-.5V623h.5z" stroke="#333" stroke-width=".05" fill="#333"/><path d="M380 246.05l-4.63-14.27h9.26z" stroke="#333" fill="#333"/><path d="M818.5 623.5H392a12 12 0 0 0-12 12v49.62" stroke="#333" fill="none"/><path d="M819 623.98h-.5V623h.5z" stroke="#333" stroke-width=".05" fill="#333"/><path d="M380 699.88l-4.63-14.26h9.26z" stroke="#333" fill="#333"/><path d="M1305.35 591.5H1272a12 12 0 0 0-12 12v239.12" stroke="#333" fill="none"/><path d="M1305.85 591.98h-.5V591h.5z" stroke="#333" stroke-width=".05" fill="#333"/><path d="M1260 857.38l-4.63-14.26h9.27z" stroke="#333" fill="#333"/><path d="M1078.5 981.5H672a12 12 0 0 1-12-12V582a12 12 0 0 0-12-12H392a12 12 0 0 0-12 12v103.12" stroke="#333" fill="none"/><path d="M1079 981.98h-.5V981h.5z" stroke="#333" stroke-width=".05" fill="#333"/><path d="M380 699.88l-4.63-14.26h9.26z" stroke="#333" fill="#333"/><path d="M1078.5 981.5H1051a12 12 0 0 0-12 12v74.5a12 12 0 0 1-12 12H122a12 12 0 0 1-12-12V219.67a12 12 0 0 1 12-12h246a12 12 0 0 1 12 12v11.6" stroke="#333" fill="none"/><path d="M1079 981.98h-.5V981h.5z" stroke="#333" stroke-width=".05" fill="#333"/><path d="M380 246.05l-4.63-14.27h9.26z" stroke="#333" fill="#333"/><defs><path fill="#a9afb8" d="M659 0H135v-1490h529c448 0 721 280 721 744 0 466-273 746-726 746zM440-263h204c287 0 437-148 437-483 0-333-150-481-435-481H440v964" id="aw"/><path fill="#a9afb8" d="M128 0v-1118h300V0H128zm150-1264c-91 0-165-68-165-154 0-85 74-154 165-154 90 0 165 69 165 154 0 86-75 154-165 154" id="ax"/><path fill="#a9afb8" d="M440 22C227 22 68-92 68-313c0-250 202-322 422-343 195-21 271-24 271-105 0-95-63-149-175-149-116 0-187 57-211 129l-275-46c57-194 237-305 487-305 240 0 474 108 474 379V0H777v-155h-10C713-51 605 22 440 22zm85-211c140 0 238-93 238-211v-121c-37 26-156 42-222 51-111 16-185 59-185 149 0 87 70 132 169 132" id="ay"/><path fill="#a9afb8" d="M625 442c-280 0-454-114-503-274l258-72c28 63 97 128 243 128 153 0 246-69 246-216v-206h-23C805-108 717-16 536-16 284-16 81-191 81-561c0-378 208-571 456-571 188 0 280 113 321 202h13v-188h295V-9c0 303-226 451-541 451zm5-686c153 0 240-119 240-319 0-198-86-329-240-329-158 0-241 137-241 329 0 195 85 319 241 319" id="az"/><path fill="#a9afb8" d="M128 0v-1118h290v195h12c54-169 184-238 367-200v268c-27-8-86-15-130-15-138 0-239 95-239 234V0H128" id="aA"/><path fill="#a9afb8" d="M128 0v-1118h278l12 217c60-163 185-234 319-234 143 0 236 81 288 251 63-172 205-251 359-251 205 0 357 138 357 381V0h-301v-697c0-126-76-187-177-187-114 0-184 79-184 196V0H789v-705c0-109-72-179-174-179-106 0-187 74-187 208V0H128" id="aB"/><g id="a"><use transform="matrix(0.011907552083333333,0,0,0.011907552083333333,0,0)" xlink:href="#aw"/><use transform="matrix(0.011907552083333333,0,0,0.011907552083333333,17.61126953125,0)" xlink:href="#ax"/><use transform="matrix(0.011907552083333333,0,0,0.011907552083333333,24.219960937499998,0)" xlink:href="#ay"/><use transform="matrix(0.011907552083333333,0,0,0.011907552083333333,38.37804036458333,0)" xlink:href="#az"/><use transform="matrix(0.011907552083333333,0,0,0.011907552083333333,53.78641276041665,0)" xlink:href="#aA"/><use transform="matrix(0.011907552083333333,0,0,0.011907552083333333,63.38389973958332,0)" xlink:href="#ay"/><use transform="matrix(0.011907552083333333,0,0,0.011907552083333333,77.54197916666666,0)" xlink:href="#aB"/><use transform="matrix(0.011907552083333333,0,0,0.011907552083333333,99.79719401041666,0)" xlink:href="#ay"/></g><path fill="#a9afb8" d="M537 19C279 19 81-185 81-557c0-382 206-575 454-575 190 0 278 113 318 202h10v-560h300V0H868v-179h-15C812-89 719 19 537 19zm92-241c153 0 240-134 240-336 0-203-86-334-240-334-158 0-240 138-240 334 0 197 84 336 240 336" id="aC"/><path fill="#a9afb8" d="M633 22C291 22 81-200 81-553c0-345 210-579 537-579 292 0 525 185 525 567v84H378c7 183 109 277 260 277 105 0 184-46 216-132l272 51C1071-99 893 22 633 22zM380-669h474c-15-146-94-237-233-237-143 0-229 99-241 237" id="aD"/><g id="b"><use transform="matrix(0.011907552083333333,0,0,0.011907552083333333,0,0)" xlink:href="#aC"/><use transform="matrix(0.011907552083333333,0,0,0.011907552083333333,15.372649739583334,0)" xlink:href="#aD"/></g><path fill="#a9afb8" d="M628 22C291 22 81-210 81-554c0-346 210-578 547-578 265 0 455 142 497 372l-279 52c-25-116-99-188-215-188-160 0-244 139-244 341 0 200 84 341 244 341 116 0 193-74 217-195l279 51C1085-123 896 22 628 22" id="aE"/><path fill="#a9afb8" d="M428-1490V0H128v-1490h300" id="aF"/><path fill="#a9afb8" d="M572 22C302 22 117-98 78-306l279-48c29 105 101 156 224 156 114 0 185-48 185-115 0-118-228-130-337-155-215-49-322-150-322-317 0-215 187-347 470-347 265 0 424 116 466 298l-266 47c-24-76-87-130-196-130-98 0-174 46-174 113 0 56 38 95 144 117l201 40c216 44 320 143 320 302 0 220-207 367-500 367" id="aG"/><g id="c"><use transform="matrix(0.011907552083333333,0,0,0.011907552083333333,0,0)" xlink:href="#aE"/><use transform="matrix(0.011907552083333333,0,0,0.011907552083333333,14.348600260416667,0)" xlink:href="#aF"/><use transform="matrix(0.011907552083333333,0,0,0.011907552083333333,20.957291666666666,0)" xlink:href="#ay"/><use transform="matrix(0.011907552083333333,0,0,0.011907552083333333,35.11537109375,0)" xlink:href="#aG"/><use transform="matrix(0.011907552083333333,0,0,0.011907552083333333,48.77333333333333,0)" xlink:href="#aG"/><use transform="matrix(0.011907552083333333,0,0,0.011907552083333333,62.43129557291667,0)" xlink:href="#aD"/></g><path fill="#a9afb8" d="M180 0v-1490h901v168H370v510h643v168H370V0H180" id="aH"/><path fill="#a9afb8" d="M471 26C259 26 90-98 90-318c0-256 228-303 435-329 202-27 287-16 287-108 0-139-79-219-234-219-161 0-248 86-283 164l-173-57c86-203 278-265 451-265 150 0 419 46 419 395V0H815v-152h-12C765-73 660 26 471 26zm31-159c199 0 310-134 310-271v-155c-30 35-226 55-295 64-131 17-246 59-246 186 0 116 97 176 231 176" id="aI"/><path fill="#a9afb8" d="M611 442c-248 0-391-105-460-228l146-94c47 65 117 165 314 165 178 0 307-82 307-266v-224h-17C863-141 792-18 576-18c-268 0-472-195-472-546 0-346 197-568 476-568 216 0 288 133 326 193h17v-179h175V29c0 289-215 413-487 413zm-5-620c203 0 314-146 314-390 0-237-108-403-314-403-213 0-319 180-319 403 0 230 109 390 319 390" id="aJ"/><path fill="#a9afb8" d="M338-670V0H158v-1118h173l1 207c72-158 192-221 342-221 226 0 378 139 378 422V0H872v-695c0-172-96-275-252-275-161 0-282 109-282 300" id="aK"/><path fill="#a9afb8" d="M628 24c-324 0-524-230-524-574 0-343 198-582 503-582 237 0 487 146 487 559v75H286c9 234 145 362 343 362 132 0 231-58 273-172l174 48C1024-91 857 24 628 24zM287-650h624c-17-190-120-322-304-322-192 0-309 151-320 322" id="aL"/><path fill="#a9afb8" d="M158 0v-1118h174v172h12c41-113 157-188 290-188 26 0 70 2 91 3v181c-11-2-60-10-108-10-161 0-279 109-279 260V0H158" id="aM"/><g id="d"><use transform="matrix(0.006946072048611111,0,0,0.006946072048611111,0,0)" xlink:href="#aH"/><use transform="matrix(0.006946072048611111,0,0,0.006946072048611111,8.050497504340278,0)" xlink:href="#aI"/><use transform="matrix(0.006946072048611111,0,0,0.006946072048611111,16.038480360243057,0)" xlink:href="#aJ"/><use transform="matrix(0.006946072048611111,0,0,0.006946072048611111,24.762746853298612,0)" xlink:href="#aK"/><use transform="matrix(0.006946072048611111,0,0,0.006946072048611111,33.16749403211806,0)" xlink:href="#aL"/><use transform="matrix(0.006946072048611111,0,0,0.006946072048611111,41.46110405815972,0)" xlink:href="#aM"/></g><path fill="#a9afb8" d="M180 0v-1490h270l367 940c28 72 75 218 110 339 35-117 81-264 110-339l362-940h271V0h-187c2-448-5-837 7-1287-157 497-311 829-483 1287H842C666-458 514-784 354-1284c12 438 5 843 7 1284H180" id="aN"/><path fill="#a9afb8" d="M537 14c-226 0-379-139-379-422v-710h180v695c0 172 97 275 253 275 160 0 281-109 281-300v-670h181V0H879v-209C806-46 684 14 537 14" id="aO"/><path fill="#a9afb8" d="M158 0v-1118h180V0H158zm91-1301c-68 0-125-53-125-119s57-119 125-119c69 0 126 53 126 119s-57 119-126 119" id="aP"/><path fill="#a9afb8" d="M126 0v-134l627-806v-11H146v-167h839v143L376-178v11h629V0H126" id="aQ"/><g id="e"><use transform="matrix(0.006946072048611111,0,0,0.006946072048611111,0,0)" xlink:href="#aN"/><use transform="matrix(0.006946072048611111,0,0,0.006946072048611111,12.850233289930555,0)" xlink:href="#aO"/><use transform="matrix(0.006946072048611111,0,0,0.006946072048611111,21.261926540798612,0)" xlink:href="#aK"/><use transform="matrix(0.006946072048611111,0,0,0.006946072048611111,29.666673719618053,0)" xlink:href="#aP"/><use transform="matrix(0.006946072048611111,0,0,0.006946072048611111,33.11192545572917,0)" xlink:href="#aQ"/></g><path fill="#a9afb8" d="M577 24c-279 0-473-224-473-580 0-354 195-576 474-576 218 0 287 134 324 193h14v-551h180V0H922v-173h-20C865-111 790 24 577 24zm27-161c203 0 314-172 314-421 0-247-108-413-314-413-212 0-317 181-317 413 0 235 108 421 317 421" id="aR"/><g id="f"><use transform="matrix(0.006946072048611111,0,0,0.006946072048611111,0,0)" xlink:href="#aR"/><use transform="matrix(0.006946072048611111,0,0,0.006946072048611111,8.710374348958332,0)" xlink:href="#aL"/></g><path fill="#a9afb8" d="M657 26c-323 0-524-166-541-416h195c15 169 171 246 346 246 202 0 356-106 356-265 5-203-294-238-475-293-239-73-380-191-380-389 0-252 224-419 512-419 294 0 499 171 508 396H992c-17-145-151-228-328-228-193 0-321 102-321 242 0 156 175 211 284 241l149 41c160 44 422 134 422 412 0 244-197 432-541 432" id="aS"/><path fill="#a9afb8" d="M471 26C259 26 90-98 90-318c0-256 228-303 435-329 202-27 287-16 287-108 0-139-79-219-234-219-161 0-248 86-283 164l-173-57c86-203 278-265 451-265 150 0 419 46 419 395V0H815v-152h-12C765-73 660 26 471 26zm31-159c199 0 310-134 310-271v-155c-30 35-226 55-295 64-131 17-246 59-246 186 0 116 97 176 231 176zm-23-1131l140-294h201l-194 294H479" id="aT"/><g id="g"><use transform="matrix(0.006946072048611111,0,0,0.006946072048611111,0,0)" xlink:href="#aS"/><use transform="matrix(0.006946072048611111,0,0,0.006946072048611111,9.127138671875,0)" xlink:href="#aT"/></g><path fill="#a9afb8" d="M419-1970V480H262v-2450h157" id="aU"/><use transform="matrix(0.006946072048611111,0,0,0.006946072048611111,0,0)" xlink:href="#aU" id="h"/><path fill="#a9afb8" d="M677 24c-213 0-288-135-325-197h-20V0H158v-1490h180v551h14c37-59 106-193 324-193 279 0 474 222 474 576 0 356-194 580-473 580zm-27-161c209 0 317-186 317-421 0-232-105-413-317-413-206 0-314 166-314 413 0 249 111 421 314 421" id="aV"/><path fill="#a9afb8" d="M140 405l46-156c120 36 205 19 263-150l32-93L54-1118h197c107 313 237 620 324 950 87-331 219-637 326-950h196L606 167c-68 178-176 259-334 259-64 0-113-12-132-21" id="aW"/><g id="i"><use transform="matrix(0.006946072048611111,0,0,0.006946072048611111,0,0)" xlink:href="#aH"/><use transform="matrix(0.006946072048611111,0,0,0.006946072048611111,7.835169270833333,0)" xlink:href="#aL"/><use transform="matrix(0.006946072048611111,0,0,0.006946072048611111,16.128779296875,0)" xlink:href="#aV"/><use transform="matrix(0.006946072048611111,0,0,0.006946072048611111,24.83915364583333,0)" xlink:href="#aM"/><use transform="matrix(0.006946072048611111,0,0,0.006946072048611111,30.1945751953125,0)" xlink:href="#aO"/><use transform="matrix(0.006946072048611111,0,0,0.006946072048611111,38.60626844618055,0)" xlink:href="#aI"/><use transform="matrix(0.006946072048611111,0,0,0.006946072048611111,46.59425130208333,0)" xlink:href="#aM"/><use transform="matrix(0.006946072048611111,0,0,0.006946072048611111,52.171947157118055,0)" xlink:href="#aW"/></g><path fill="#a9afb8" d="M653-1490V0H466v-1314h-10L96-1047v-204l324-239h233" id="aX"/><path fill="#a9afb8" d="M626 20c-262 0-458-168-468-396h184c12 133 134 229 284 229 180 0 311-137 311-326 0-192-136-335-323-335-92 0-196 33-255 78l-178-22 88-738h784v167H429l-51 435h8c61-51 160-87 263-87 273 0 474 211 474 499 0 286-210 496-497 496" id="aY"/><path fill="#a9afb8" d="M128 359l88-567h206L266 359H128" id="aZ"/><g id="j"><use transform="matrix(0.006946072048611111,0,0,0.006946072048611111,0,0)" xlink:href="#aX"/><use transform="matrix(0.006946072048611111,0,0,0.006946072048611111,5.786078016493056,0)" xlink:href="#aY"/><use transform="matrix(0.006946072048611111,0,0,0.006946072048611111,14.433937717013889,0)" xlink:href="#aZ"/></g><path fill="#a9afb8" d="M154 0v-137l495-537c165-179 249-281 249-418 0-156-121-253-280-253-170 0-278 110-278 278H158c0-264 200-443 465-443 266 0 455 183 455 416 0 161-73 288-336 568L416-179v12h687V0H154" id="ba"/><path fill="#a9afb8" d="M646 20c-332 0-524-278-524-764 0-483 194-766 524-766s524 283 524 766c0 485-191 764-524 764zm0-166c218 0 341-220 341-598 0-380-123-601-341-601s-341 222-341 601c0 378 123 598 341 598" id="bb"/><g id="k"><use transform="matrix(0.006946072048611111,0,0,0.006946072048611111,0,0)" xlink:href="#ba"/><use transform="matrix(0.006946072048611111,0,0,0.006946072048611111,8.675643988715278,0)" xlink:href="#bb"/><use transform="matrix(0.006946072048611111,0,0,0.006946072048611111,17.649969075520833,0)" xlink:href="#ba"/><use transform="matrix(0.006946072048611111,0,0,0.006946072048611111,26.32561306423611,0)" xlink:href="#aY"/></g><path d="M763 24c-353 0-583-224-583-531v-983h190v968c0 214 149 370 393 370 243 0 391-156 391-370v-968h190v983c0 307-230 531-581 531" id="bc"/><path d="M538 24C308 24 148-78 108-271l171-41c32 123 123 178 257 178 156 0 256-77 256-169 0-77-54-128-164-154l-186-44c-203-48-300-148-300-305 0-192 176-326 414-326 230 0 351 112 402 269l-163 42c-31-80-94-158-238-158-133 0-233 69-233 162 0 83 57 129 188 160l169 40c203 48 298 149 298 302 0 196-179 339-441 339" id="bd"/><path d="M628 24c-324 0-524-230-524-574 0-343 198-582 503-582 237 0 487 146 487 559v75H286c9 234 145 362 343 362 132 0 231-58 273-172l174 48C1024-91 857 24 628 24zM287-650h624c-17-190-120-322-304-322-192 0-309 151-320 322" id="be"/><path d="M158 0v-1118h174v172h12c41-113 157-188 290-188 26 0 70 2 91 3v181c-11-2-60-10-108-10-161 0-279 109-279 260V0H158" id="bf"/><g id="l"><use transform="matrix(0.0087890625,0,0,0.0087890625,0,0)" xlink:href="#bc"/><use transform="matrix(0.0087890625,0,0,0.0087890625,13.39453125,0)" xlink:href="#bd"/><use transform="matrix(0.0087890625,0,0,0.0087890625,22.8955078125,0)" xlink:href="#be"/><use transform="matrix(0.0087890625,0,0,0.0087890625,33.3896484375,0)" xlink:href="#bf"/></g><path d="M798-719v166H144v-166h654" id="bg"/><use transform="matrix(0.0087890625,0,0,0.0087890625,0,0)" xlink:href="#bg" id="m"/><path d="M158 0v-1118h180V0H158zm91-1301c-68 0-125-53-125-119s57-119 125-119c69 0 126 53 126 119s-57 119-126 119" id="bh"/><path d="M577 24c-279 0-473-224-473-580 0-354 195-576 474-576 218 0 287 134 324 193h14v-551h180V0H922v-173h-20C865-111 790 24 577 24zm27-161c203 0 314-172 314-421 0-247-108-413-314-413-212 0-317 181-317 413 0 235 108 421 317 421" id="bi"/><path d="M295 13c-75 0-135-60-135-135s60-135 135-135 135 60 135 135S370 13 295 13zm0-809c-75 0-135-60-135-135s60-135 135-135 135 60 135 135-60 135-135 135" id="bj"/><g id="n"><use transform="matrix(0.0087890625,0,0,0.0087890625,0,0)" xlink:href="#bh"/><use transform="matrix(0.0087890625,0,0,0.0087890625,4.359375,0)" xlink:href="#bi"/><use transform="matrix(0.0087890625,0,0,0.0087890625,15.380859375,0)" xlink:href="#bj"/></g><path d="M370-1490V0H180v-1490h190" id="bk"/><path d="M645 0H180v-1490h484c435 0 692 280 692 742 0 466-257 748-711 748zM370-168h263c363 0 539-218 539-580 0-358-176-574-521-574H370v1154" id="bl"/><g id="o"><use transform="matrix(0.0087890625,0,0,0.0087890625,0,0)" xlink:href="#bc"/><use transform="matrix(0.0087890625,0,0,0.0087890625,13.39453125,0)" xlink:href="#bc"/><use transform="matrix(0.0087890625,0,0,0.0087890625,26.7890625,0)" xlink:href="#bk"/><use transform="matrix(0.0087890625,0,0,0.0087890625,31.623046875,0)" xlink:href="#bl"/></g><path d="M338-670V0H158v-1118h173l1 207c72-158 192-221 342-221 226 0 378 139 378 422V0H872v-695c0-172-96-275-252-275-161 0-282 109-282 300" id="bm"/><path d="M471 26C259 26 90-98 90-318c0-256 228-303 435-329 202-27 287-16 287-108 0-139-79-219-234-219-161 0-248 86-283 164l-173-57c86-203 278-265 451-265 150 0 419 46 419 395V0H815v-152h-12C765-73 660 26 471 26zm31-159c199 0 310-134 310-271v-155c-30 35-226 55-295 64-131 17-246 59-246 186 0 116 97 176 231 176" id="bn"/><path d="M158 0v-1118h175l1 205c55-151 181-225 313-225 147 0 245 90 285 228 53-141 190-228 352-228 194 0 352 125 352 384V0h-181v-749c0-161-105-225-225-225-151 0-243 103-243 244V0H807v-767c0-124-93-207-219-207-131 0-250 92-250 270V0H158" id="bo"/><g id="p"><use transform="matrix(0.0087890625,0,0,0.0087890625,0,0)" xlink:href="#bm"/><use transform="matrix(0.0087890625,0,0,0.0087890625,10.634765625,0)" xlink:href="#bn"/><use transform="matrix(0.0087890625,0,0,0.0087890625,20.7421875,0)" xlink:href="#bo"/><use transform="matrix(0.0087890625,0,0,0.0087890625,36.509765625,0)" xlink:href="#be"/><use transform="matrix(0.0087890625,0,0,0.0087890625,47.00390625,0)" xlink:href="#bj"/></g><path d="M657 26c-323 0-524-166-541-416h195c15 169 171 246 346 246 202 0 356-106 356-265 5-203-294-238-475-293-239-73-380-191-380-389 0-252 224-419 512-419 294 0 499 171 508 396H992c-17-145-151-228-328-228-193 0-321 102-321 242 0 156 175 211 284 241l149 41c160 44 422 134 422 412 0 244-197 432-541 432" id="bp"/><path d="M598-1118v154H368v674c0 100 37 144 132 144 23 0 62-6 92-12L629-6c-37 13-88 20-134 20-193 0-307-107-307-290v-688H20v-154h168v-266h180v266h230" id="bq"/><path d="M611 442c-248 0-391-105-460-228l146-94c47 65 117 165 314 165 178 0 307-82 307-266v-224h-17C863-141 792-18 576-18c-268 0-472-195-472-546 0-346 197-568 476-568 216 0 288 133 326 193h17v-179h175V29c0 289-215 413-487 413zm-5-620c203 0 314-146 314-390 0-237-108-403-314-403-213 0-319 180-319 403 0 230 109 390 319 390" id="br"/><g id="q"><use transform="matrix(0.0087890625,0,0,0.0087890625,0,0)" xlink:href="#bp"/><use transform="matrix(0.0087890625,0,0,0.0087890625,11.548828125,0)" xlink:href="#bq"/><use transform="matrix(0.0087890625,0,0,0.0087890625,17.4375,0)" xlink:href="#bf"/><use transform="matrix(0.0087890625,0,0,0.0087890625,24.4951171875,0)" xlink:href="#bh"/><use transform="matrix(0.0087890625,0,0,0.0087890625,28.8544921875,0)" xlink:href="#bm"/><use transform="matrix(0.0087890625,0,0,0.0087890625,39.4892578125,0)" xlink:href="#br"/></g><path d="M158 418v-1536h174v179h20c37-59 106-193 324-193 279 0 474 222 474 576 0 356-194 580-473 580-213 0-288-135-325-197h-14v591H158zm492-555c209 0 317-186 317-421 0-232-105-413-317-413-206 0-314 166-314 413 0 249 111 421 314 421" id="bs"/><path d="M409 0L70-1118h191c89 329 165 560 243 925 75-353 154-601 240-925h192c85 325 161 564 235 922 77-354 157-598 244-922h191L1267 0h-179c-86-307-176-590-250-913C763-588 675-308 588 0H409" id="bt"/><path d="M613 24c-304 0-509-231-509-576 0-350 205-580 509-580 305 0 511 230 511 580 0 345-206 576-511 576zm0-161c226 0 329-195 329-415 0-222-103-419-329-419-223 0-326 196-326 419 0 220 103 415 326 415" id="bu"/><g id="r"><use transform="matrix(0.0087890625,0,0,0.0087890625,0,0)" xlink:href="#bs"/><use transform="matrix(0.0087890625,0,0,0.0087890625,11.197265625,0)" xlink:href="#bn"/><use transform="matrix(0.0087890625,0,0,0.0087890625,21.3046875,0)" xlink:href="#bd"/><use transform="matrix(0.0087890625,0,0,0.0087890625,30.8056640625,0)" xlink:href="#bd"/><use transform="matrix(0.0087890625,0,0,0.0087890625,40.306640625,0)" xlink:href="#bt"/><use transform="matrix(0.0087890625,0,0,0.0087890625,54.7119140625,0)" xlink:href="#bu"/><use transform="matrix(0.0087890625,0,0,0.0087890625,65.5048828125,0)" xlink:href="#bf"/><use transform="matrix(0.0087890625,0,0,0.0087890625,71.982421875,0)" xlink:href="#bi"/><use transform="matrix(0.0087890625,0,0,0.0087890625,83.00390625,0)" xlink:href="#bj"/></g><g id="s"><use transform="matrix(0.0087890625,0,0,0.0087890625,0,0)" xlink:href="#bp"/><use transform="matrix(0.0087890625,0,0,0.0087890625,11.548828125,0)" xlink:href="#bq"/><use transform="matrix(0.0087890625,0,0,0.0087890625,17.4375,0)" xlink:href="#bf"/><use transform="matrix(0.0087890625,0,0,0.0087890625,24.4951171875,0)" xlink:href="#bh"/><use transform="matrix(0.0087890625,0,0,0.0087890625,28.8544921875,0)" xlink:href="#bm"/><use transform="matrix(0.0087890625,0,0,0.0087890625,39.4892578125,0)" xlink:href="#br"/></g><use transform="matrix(0.0087890625,0,0,0.0087890625,0,0)" xlink:href="#bg" id="t"/><path d="M338-1490V0H158v-1490h180" id="bv"/><g id="u"><use transform="matrix(0.0087890625,0,0,0.0087890625,0,0)" xlink:href="#be"/><use transform="matrix(0.0087890625,0,0,0.0087890625,10.494140625,0)" xlink:href="#bo"/><use transform="matrix(0.0087890625,0,0,0.0087890625,26.26171875,0)" xlink:href="#bn"/><use transform="matrix(0.0087890625,0,0,0.0087890625,36.369140625,0)" xlink:href="#bh"/><use transform="matrix(0.0087890625,0,0,0.0087890625,40.728515625,0)" xlink:href="#bv"/><use transform="matrix(0.0087890625,0,0,0.0087890625,45.087890625,0)" xlink:href="#bj"/></g><path d="M481 0L54-1118h197c107 314 236 620 325 951 87-331 217-637 324-951h197L670 0H481" id="bw"/><g id="v"><use transform="matrix(0.0087890625,0,0,0.0087890625,0,0)" xlink:href="#bn"/><use transform="matrix(0.0087890625,0,0,0.0087890625,9.84375,0)" xlink:href="#bw"/><use transform="matrix(0.0087890625,0,0,0.0087890625,19.8720703125,0)" xlink:href="#bn"/><use transform="matrix(0.0087890625,0,0,0.0087890625,29.9794921875,0)" xlink:href="#bq"/><use transform="matrix(0.0087890625,0,0,0.0087890625,35.9560546875,0)" xlink:href="#bn"/><use transform="matrix(0.0087890625,0,0,0.0087890625,46.0634765625,0)" xlink:href="#bf"/><use transform="matrix(0.0087890625,0,0,0.0087890625,52.83984375,0)" xlink:href="#bj"/></g><g id="w"><use transform="matrix(0.0087890625,0,0,0.0087890625,0,0)" xlink:href="#bf"/><use transform="matrix(0.0087890625,0,0,0.0087890625,6.4775390625,0)" xlink:href="#bu"/><use transform="matrix(0.0087890625,0,0,0.0087890625,17.2705078125,0)" xlink:href="#bv"/><use transform="matrix(0.0087890625,0,0,0.0087890625,21.6298828125,0)" xlink:href="#be"/><use transform="matrix(0.0087890625,0,0,0.0087890625,32.1240234375,0)" xlink:href="#bj"/></g><path d="M180 0v-1490h510c348 0 508 194 508 460 0 198-88 351-276 417L1256 0h-220L726-579c-117 2-238 0-356 1V0H180zm190-747h312c235 0 327-108 327-283 0-177-92-293-329-293H370v576" id="bx"/><g id="x"><use transform="matrix(0.0087890625,0,0,0.0087890625,0,0)" xlink:href="#bc"/><use transform="matrix(0.0087890625,0,0,0.0087890625,13.39453125,0)" xlink:href="#bd"/><use transform="matrix(0.0087890625,0,0,0.0087890625,22.8955078125,0)" xlink:href="#be"/><use transform="matrix(0.0087890625,0,0,0.0087890625,33.3896484375,0)" xlink:href="#bf"/><use transform="matrix(0.0087890625,0,0,0.0087890625,40.447265625,0)" xlink:href="#bx"/><use transform="matrix(0.0087890625,0,0,0.0087890625,51.767578125,0)" xlink:href="#bu"/><use transform="matrix(0.0087890625,0,0,0.0087890625,62.560546875,0)" xlink:href="#bv"/><use transform="matrix(0.0087890625,0,0,0.0087890625,66.919921875,0)" xlink:href="#be"/></g><g id="y"><use transform="matrix(0.0087890625,0,0,0.0087890625,0,0)" xlink:href="#br"/><use transform="matrix(0.0087890625,0,0,0.0087890625,11.0390625,0)" xlink:href="#bn"/><use transform="matrix(0.0087890625,0,0,0.0087890625,21.146484375,0)" xlink:href="#bo"/><use transform="matrix(0.0087890625,0,0,0.0087890625,36.9140625,0)" xlink:href="#be"/><use transform="matrix(0.0087890625,0,0,0.0087890625,47.408203125,0)" xlink:href="#bp"/><use transform="matrix(0.0087890625,0,0,0.0087890625,58.95703125,0)" xlink:href="#be"/><use transform="matrix(0.0087890625,0,0,0.0087890625,69.451171875,0)" xlink:href="#bf"/><use transform="matrix(0.0087890625,0,0,0.0087890625,76.5087890625,0)" xlink:href="#bw"/><use transform="matrix(0.0087890625,0,0,0.0087890625,86.2734375,0)" xlink:href="#be"/><use transform="matrix(0.0087890625,0,0,0.0087890625,96.767578125,0)" xlink:href="#bf"/><use transform="matrix(0.0087890625,0,0,0.0087890625,103.5439453125,0)" xlink:href="#bj"/></g><path d="M789 20c-398 0-667-293-667-764 0-473 273-766 655-766 315 0 558 198 612 487h-196c-61-191-204-311-415-311-262 0-471 207-471 590 0 380 208 588 482 588 249 0 420-165 425-427H828v-166h572v163c0 370-256 606-611 606" id="by"/><g id="z"><use transform="matrix(0.0087890625,0,0,0.0087890625,0,0)" xlink:href="#by"/><use transform="matrix(0.0087890625,0,0,0.0087890625,13.4296875,0)" xlink:href="#bn"/><use transform="matrix(0.0087890625,0,0,0.0087890625,23.537109375,0)" xlink:href="#bo"/><use transform="matrix(0.0087890625,0,0,0.0087890625,39.3046875,0)" xlink:href="#be"/><use transform="matrix(0.0087890625,0,0,0.0087890625,49.798828125,0)" xlink:href="#bp"/><use transform="matrix(0.0087890625,0,0,0.0087890625,61.34765625,0)" xlink:href="#be"/><use transform="matrix(0.0087890625,0,0,0.0087890625,71.841796875,0)" xlink:href="#bf"/><use transform="matrix(0.0087890625,0,0,0.0087890625,78.8994140625,0)" xlink:href="#bw"/><use transform="matrix(0.0087890625,0,0,0.0087890625,88.6640625,0)" xlink:href="#be"/><use transform="matrix(0.0087890625,0,0,0.0087890625,99.158203125,0)" xlink:href="#bf"/></g><path d="M593-100v-404H195v-159h398v-403h169v403h398v159H762v404H593" id="bz"/><use transform="matrix(0.0087890625,0,0,0.0087890625,0,0)" xlink:href="#bz" id="A"/><g id="B"><use transform="matrix(0.0087890625,0,0,0.0087890625,0,0)" xlink:href="#br"/><use transform="matrix(0.0087890625,0,0,0.0087890625,11.0390625,0)" xlink:href="#be"/><use transform="matrix(0.0087890625,0,0,0.0087890625,21.533203125,0)" xlink:href="#bq"/><use transform="matrix(0.0087890625,0,0,0.0087890625,27.24609375,0)" xlink:href="#be"/><use transform="matrix(0.0087890625,0,0,0.0087890625,37.740234375,0)" xlink:href="#bf"/><use transform="matrix(0.0087890625,0,0,0.0087890625,44.5166015625,0)" xlink:href="#bd"/></g><path d="M580 20c-295 0-476-179-476-409 0-189 123-290 294-416-104-125-173-226-173-362 0-197 144-337 365-337 224 0 362 144 362 321 0 185-174 312-306 405l319 387c38-75 61-165 61-267h173c0 208-62 332-120 406L1287 0h-217L967-124C868-27 716 20 580 20zm279-273L507-675l-51 38c-123 91-167 162-167 254 0 147 113 246 278 246 107 0 210-41 292-116zM538-908l97-72c54-40 136-101 136-206 0-95-68-163-176-163-113 0-189 74-189 181 0 90 53 164 132 260" id="bA"/><use transform="matrix(0.0087890625,0,0,0.0087890625,0,0)" xlink:href="#bA" id="C"/><g id="D"><use transform="matrix(0.0087890625,0,0,0.0087890625,0,0)" xlink:href="#bd"/><use transform="matrix(0.0087890625,0,0,0.0087890625,9.5009765625,0)" xlink:href="#be"/><use transform="matrix(0.0087890625,0,0,0.0087890625,19.9951171875,0)" xlink:href="#bf"/><use transform="matrix(0.0087890625,0,0,0.0087890625,27.052734375,0)" xlink:href="#bq"/><use transform="matrix(0.0087890625,0,0,0.0087890625,32.765625,0)" xlink:href="#be"/><use transform="matrix(0.0087890625,0,0,0.0087890625,43.259765625,0)" xlink:href="#bf"/><use transform="matrix(0.0087890625,0,0,0.0087890625,50.0361328125,0)" xlink:href="#bd"/></g><g id="E"><use transform="matrix(0.0087890625,0,0,0.0087890625,0,0)" xlink:href="#bc"/><use transform="matrix(0.0087890625,0,0,0.0087890625,13.39453125,0)" xlink:href="#bd"/><use transform="matrix(0.0087890625,0,0,0.0087890625,22.8955078125,0)" xlink:href="#be"/><use transform="matrix(0.0087890625,0,0,0.0087890625,33.3896484375,0)" xlink:href="#bf"/><use transform="matrix(0.0087890625,0,0,0.0087890625,40.447265625,0)" xlink:href="#bx"/><use transform="matrix(0.0087890625,0,0,0.0087890625,51.767578125,0)" xlink:href="#bu"/><use transform="matrix(0.0087890625,0,0,0.0087890625,62.560546875,0)" xlink:href="#bv"/><use transform="matrix(0.0087890625,0,0,0.0087890625,66.919921875,0)" xlink:href="#be"/></g><path d="M180 0v-1490h908v168H370v486h669v168H370v500h727V0H180" id="bB"/><path d="M600 0L52-1490h200c166 485 304 806 458 1336 156-533 285-846 449-1336h202L819 0H600" id="bC"/><path d="M180 0v-1490h190v1322h690V0H180" id="bD"/><path d="M784 20c-382 0-662-292-662-764 0-473 280-766 662-766s660 293 660 766c0 472-278 764-660 764zm0-176c266 0 475-207 475-588 0-383-209-590-475-590-268 0-477 208-477 590 0 380 209 588 477 588" id="bE"/><path d="M180 0v-1490h510c348 0 508 209 508 474 0 266-160 477-507 477H370V0H180zm190-706h312c236 0 327-133 327-310 0-176-91-307-329-307H370v617" id="bF"/><g id="F"><use transform="matrix(0.0087890625,0,0,0.0087890625,0,0)" xlink:href="#bl"/><use transform="matrix(0.0087890625,0,0,0.0087890625,12.990234375,0)" xlink:href="#bB"/><use transform="matrix(0.0087890625,0,0,0.0087890625,23.8095703125,0)" xlink:href="#bC"/><use transform="matrix(0.0087890625,0,0,0.0087890625,36.228515625,0)" xlink:href="#bB"/><use transform="matrix(0.0087890625,0,0,0.0087890625,47.0478515625,0)" xlink:href="#bD"/><use transform="matrix(0.0087890625,0,0,0.0087890625,56.7158203125,0)" xlink:href="#bE"/><use transform="matrix(0.0087890625,0,0,0.0087890625,70.4794921875,0)" xlink:href="#bF"/><use transform="matrix(0.0087890625,0,0,0.0087890625,81.9755859375,0)" xlink:href="#bB"/><use transform="matrix(0.0087890625,0,0,0.0087890625,92.794921875,0)" xlink:href="#bx"/><use transform="matrix(0.0087890625,0,0,0.0087890625,104.37890625,0)" xlink:href="#bj"/></g><g id="G"><use transform="matrix(0.0087890625,0,0,0.0087890625,0,0)" xlink:href="#bk"/><use transform="matrix(0.0087890625,0,0,0.0087890625,4.833984375,0)" xlink:href="#bm"/><use transform="matrix(0.0087890625,0,0,0.0087890625,15.46875,0)" xlink:href="#bq"/><use transform="matrix(0.0087890625,0,0,0.0087890625,21.181640625,0)" xlink:href="#be"/><use transform="matrix(0.0087890625,0,0,0.0087890625,31.67578125,0)" xlink:href="#br"/><use transform="matrix(0.0087890625,0,0,0.0087890625,42.71484375,0)" xlink:href="#be"/><use transform="matrix(0.0087890625,0,0,0.0087890625,53.208984375,0)" xlink:href="#bf"/></g><path d="M226-283v-166h904v166H226zm0-434v-166h904v166H226" id="bG"/><use transform="matrix(0.0087890625,0,0,0.0087890625,0,0)" xlink:href="#bG" id="H"/><path d="M646 20c-332 0-524-278-524-764 0-483 194-766 524-766s524 283 524 766c0 485-191 764-524 764zm0-166c218 0 341-220 341-598 0-380-123-601-341-601s-341 222-341 601c0 378 123 598 341 598" id="bH"/><use transform="matrix(0.0087890625,0,0,0.0087890625,0,0)" xlink:href="#bH" id="I"/><path d="M52 0l541-1490h220L1361 0h-200l-149-416H398L254 0H52zm404-582h497c-103-290-145-390-251-756-108 377-145 460-246 756" id="bI"/><path d="M600 0v-610L52-1490h220l295 481c50 82 90 150 130 243 40-96 80-164 128-243l294-481h219L790-610V0H600" id="bJ"/><g id="J"><use transform="matrix(0.0087890625,0,0,0.0087890625,0,0)" xlink:href="#bF"/><use transform="matrix(0.0087890625,0,0,0.0087890625,11.49609375,0)" xlink:href="#bD"/><use transform="matrix(0.0087890625,0,0,0.0087890625,21.673828125,0)" xlink:href="#bI"/><use transform="matrix(0.0087890625,0,0,0.0087890625,32.765625,0)" xlink:href="#bJ"/><use transform="matrix(0.0087890625,0,0,0.0087890625,44.982421875,0)" xlink:href="#bB"/><use transform="matrix(0.0087890625,0,0,0.0087890625,55.8017578125,0)" xlink:href="#bx"/><use transform="matrix(0.0087890625,0,0,0.0087890625,67.3857421875,0)" xlink:href="#bj"/></g><g id="K"><use transform="matrix(0.0087890625,0,0,0.0087890625,0,0)" xlink:href="#bk"/><use transform="matrix(0.0087890625,0,0,0.0087890625,4.833984375,0)" xlink:href="#bm"/><use transform="matrix(0.0087890625,0,0,0.0087890625,15.46875,0)" xlink:href="#bq"/><use transform="matrix(0.0087890625,0,0,0.0087890625,21.181640625,0)" xlink:href="#be"/><use transform="matrix(0.0087890625,0,0,0.0087890625,31.67578125,0)" xlink:href="#bf"/><use transform="matrix(0.0087890625,0,0,0.0087890625,38.1533203125,0)" xlink:href="#br"/><use transform="matrix(0.0087890625,0,0,0.0087890625,49.1923828125,0)" xlink:href="#be"/><use transform="matrix(0.0087890625,0,0,0.0087890625,59.6865234375,0)" xlink:href="#bf"/></g><path d="M653-1490V0H466v-1314h-10L96-1047v-204l324-239h233" id="bK"/><use transform="matrix(0.0087890625,0,0,0.0087890625,0,0)" xlink:href="#bK" id="L"/><g id="M"><use transform="matrix(0.0087890625,0,0,0.0087890625,0,0)" xlink:href="#bd"/><use transform="matrix(0.0087890625,0,0,0.0087890625,9.5009765625,0)" xlink:href="#be"/><use transform="matrix(0.0087890625,0,0,0.0087890625,19.9951171875,0)" xlink:href="#bq"/><use transform="matrix(0.0087890625,0,0,0.0087890625,25.7080078125,0)" xlink:href="#be"/><use transform="matrix(0.0087890625,0,0,0.0087890625,36.2021484375,0)" xlink:href="#bf"/><use transform="matrix(0.0087890625,0,0,0.0087890625,42.978515625,0)" xlink:href="#bd"/></g><g id="N"><use transform="matrix(0.0087890625,0,0,0.0087890625,0,0)" xlink:href="#by"/><use transform="matrix(0.0087890625,0,0,0.0087890625,13.4296875,0)" xlink:href="#bn"/><use transform="matrix(0.0087890625,0,0,0.0087890625,23.537109375,0)" xlink:href="#bo"/><use transform="matrix(0.0087890625,0,0,0.0087890625,39.3046875,0)" xlink:href="#be"/><use transform="matrix(0.0087890625,0,0,0.0087890625,49.798828125,0)" xlink:href="#bp"/><use transform="matrix(0.0087890625,0,0,0.0087890625,61.34765625,0)" xlink:href="#be"/><use transform="matrix(0.0087890625,0,0,0.0087890625,71.841796875,0)" xlink:href="#bf"/><use transform="matrix(0.0087890625,0,0,0.0087890625,78.8994140625,0)" xlink:href="#bw"/><use transform="matrix(0.0087890625,0,0,0.0087890625,88.6640625,0)" xlink:href="#be"/><use transform="matrix(0.0087890625,0,0,0.0087890625,99.158203125,0)" xlink:href="#bf"/></g><g id="O"><use transform="matrix(0.0087890625,0,0,0.0087890625,0,0)" xlink:href="#bh"/><use transform="matrix(0.0087890625,0,0,0.0087890625,4.359375,0)" xlink:href="#bi"/><use transform="matrix(0.0087890625,0,0,0.0087890625,15.380859375,0)" xlink:href="#bj"/></g><g id="P"><use transform="matrix(0.0087890625,0,0,0.0087890625,0,0)" xlink:href="#bc"/><use transform="matrix(0.0087890625,0,0,0.0087890625,13.39453125,0)" xlink:href="#bc"/><use transform="matrix(0.0087890625,0,0,0.0087890625,26.7890625,0)" xlink:href="#bk"/><use transform="matrix(0.0087890625,0,0,0.0087890625,31.623046875,0)" xlink:href="#bl"/></g><g id="Q"><use transform="matrix(0.0087890625,0,0,0.0087890625,0,0)" xlink:href="#bm"/><use transform="matrix(0.0087890625,0,0,0.0087890625,10.634765625,0)" xlink:href="#bn"/><use transform="matrix(0.0087890625,0,0,0.0087890625,20.7421875,0)" xlink:href="#bo"/><use transform="matrix(0.0087890625,0,0,0.0087890625,36.509765625,0)" xlink:href="#be"/><use transform="matrix(0.0087890625,0,0,0.0087890625,47.00390625,0)" xlink:href="#bp"/><use transform="matrix(0.0087890625,0,0,0.0087890625,58.552734375,0)" xlink:href="#be"/><use transform="matrix(0.0087890625,0,0,0.0087890625,69.046875,0)" xlink:href="#bf"/><use transform="matrix(0.0087890625,0,0,0.0087890625,76.1044921875,0)" xlink:href="#bw"/><use transform="matrix(0.0087890625,0,0,0.0087890625,85.869140625,0)" xlink:href="#be"/><use transform="matrix(0.0087890625,0,0,0.0087890625,96.36328125,0)" xlink:href="#bf"/><use transform="matrix(0.0087890625,0,0,0.0087890625,103.1396484375,0)" xlink:href="#bj"/></g><path d="M613 24c-304 0-509-231-509-576 0-350 205-580 509-580 216 0 392 114 453 309l-173 49c-33-115-133-197-280-197-223 0-326 196-326 419 0 220 103 415 326 415 150 0 252-85 285-206l172 49C1010-95 832 24 613 24" id="bL"/><g id="R"><use transform="matrix(0.0087890625,0,0,0.0087890625,0,0)" xlink:href="#bi"/><use transform="matrix(0.0087890625,0,0,0.0087890625,11.021484375,0)" xlink:href="#be"/><use transform="matrix(0.0087890625,0,0,0.0087890625,21.515625,0)" xlink:href="#bd"/><use transform="matrix(0.0087890625,0,0,0.0087890625,31.0166015625,0)" xlink:href="#bL"/><use transform="matrix(0.0087890625,0,0,0.0087890625,41.2998046875,0)" xlink:href="#bf"/><use transform="matrix(0.0087890625,0,0,0.0087890625,48.357421875,0)" xlink:href="#bh"/><use transform="matrix(0.0087890625,0,0,0.0087890625,52.716796875,0)" xlink:href="#bs"/><use transform="matrix(0.0087890625,0,0,0.0087890625,63.73828125,0)" xlink:href="#bq"/><use transform="matrix(0.0087890625,0,0,0.0087890625,69.626953125,0)" xlink:href="#bh"/><use transform="matrix(0.0087890625,0,0,0.0087890625,73.986328125,0)" xlink:href="#bu"/><use transform="matrix(0.0087890625,0,0,0.0087890625,84.779296875,0)" xlink:href="#bm"/><use transform="matrix(0.0087890625,0,0,0.0087890625,95.4140625,0)" xlink:href="#bj"/></g><g id="S"><use transform="matrix(0.0087890625,0,0,0.0087890625,0,0)" xlink:href="#bi"/><use transform="matrix(0.0087890625,0,0,0.0087890625,11.021484375,0)" xlink:href="#bn"/><use transform="matrix(0.0087890625,0,0,0.0087890625,21.12890625,0)" xlink:href="#bq"/><use transform="matrix(0.0087890625,0,0,0.0087890625,26.841796875,0)" xlink:href="#be"/><use transform="matrix(0.0087890625,0,0,0.0087890625,37.3359375,0)" xlink:href="#bc"/><use transform="matrix(0.0087890625,0,0,0.0087890625,50.73046875,0)" xlink:href="#bs"/><use transform="matrix(0.0087890625,0,0,0.0087890625,61.751953125,0)" xlink:href="#bi"/><use transform="matrix(0.0087890625,0,0,0.0087890625,72.7734375,0)" xlink:href="#bn"/><use transform="matrix(0.0087890625,0,0,0.0087890625,82.880859375,0)" xlink:href="#bq"/><use transform="matrix(0.0087890625,0,0,0.0087890625,88.59375,0)" xlink:href="#be"/><use transform="matrix(0.0087890625,0,0,0.0087890625,99.087890625,0)" xlink:href="#bj"/></g><g id="T"><use transform="matrix(0.0087890625,0,0,0.0087890625,0,0)" xlink:href="#bl"/><use transform="matrix(0.0087890625,0,0,0.0087890625,12.990234375,0)" xlink:href="#bn"/><use transform="matrix(0.0087890625,0,0,0.0087890625,23.09765625,0)" xlink:href="#bq"/><use transform="matrix(0.0087890625,0,0,0.0087890625,29.07421875,0)" xlink:href="#bn"/></g><g id="U"><use transform="matrix(0.0087890625,0,0,0.0087890625,0,0)" xlink:href="#bi"/><use transform="matrix(0.0087890625,0,0,0.0087890625,11.021484375,0)" xlink:href="#bn"/><use transform="matrix(0.0087890625,0,0,0.0087890625,21.12890625,0)" xlink:href="#bq"/><use transform="matrix(0.0087890625,0,0,0.0087890625,26.841796875,0)" xlink:href="#be"/><use transform="matrix(0.0087890625,0,0,0.0087890625,36.7294921875,0)" xlink:href="#bI"/><use transform="matrix(0.0087890625,0,0,0.0087890625,48.796875,0)" xlink:href="#bq"/><use transform="matrix(0.0087890625,0,0,0.0087890625,54.685546875,0)" xlink:href="#bj"/></g><path d="M537 14c-226 0-379-139-379-422v-710h180v695c0 172 97 275 253 275 160 0 281-109 281-300v-670h181V0H879v-209C806-46 684 14 537 14" id="bM"/><g id="V"><use transform="matrix(0.0087890625,0,0,0.0087890625,0,0)" xlink:href="#bM"/><use transform="matrix(0.0087890625,0,0,0.0087890625,10.6435546875,0)" xlink:href="#bd"/><use transform="matrix(0.0087890625,0,0,0.0087890625,20.14453125,0)" xlink:href="#be"/><use transform="matrix(0.0087890625,0,0,0.0087890625,30.638671875,0)" xlink:href="#bf"/><use transform="matrix(0.0087890625,0,0,0.0087890625,37.4150390625,0)" xlink:href="#bj"/></g><g id="W"><use transform="matrix(0.0087890625,0,0,0.0087890625,0,0)" xlink:href="#bc"/><use transform="matrix(0.0087890625,0,0,0.0087890625,13.39453125,0)" xlink:href="#bd"/><use transform="matrix(0.0087890625,0,0,0.0087890625,22.8955078125,0)" xlink:href="#be"/><use transform="matrix(0.0087890625,0,0,0.0087890625,33.3896484375,0)" xlink:href="#bf"/></g><path d="M140 405l46-156c120 36 205 19 263-150l32-93L54-1118h197c107 313 237 620 324 950 87-331 219-637 326-950h196L606 167c-68 178-176 259-334 259-64 0-113-12-132-21" id="bN"/><g id="X"><use transform="matrix(0.0087890625,0,0,0.0087890625,0,0)" xlink:href="#bs"/><use transform="matrix(0.0087890625,0,0,0.0087890625,11.021484375,0)" xlink:href="#bv"/><use transform="matrix(0.0087890625,0,0,0.0087890625,15.380859375,0)" xlink:href="#bn"/><use transform="matrix(0.0087890625,0,0,0.0087890625,25.224609375,0)" xlink:href="#bN"/><use transform="matrix(0.0087890625,0,0,0.0087890625,34.9892578125,0)" xlink:href="#be"/><use transform="matrix(0.0087890625,0,0,0.0087890625,45.4833984375,0)" xlink:href="#bf"/><use transform="matrix(0.0087890625,0,0,0.0087890625,52.259765625,0)" xlink:href="#bd"/><use transform="matrix(0.0087890625,0,0,0.0087890625,61.7607421875,0)" xlink:href="#bj"/></g><path d="M174-520v-126l944-476v196L406-588v12l712 338v194" id="bO"/><path d="M1181-520L237-44v-194l712-338v-12L237-926v-196l944 476v126" id="bP"/><g id="Y"><use transform="matrix(0.0087890625,0,0,0.0087890625,0,0)" xlink:href="#bD"/><use transform="matrix(0.0087890625,0,0,0.0087890625,10.177734375,0)" xlink:href="#bh"/><use transform="matrix(0.0087890625,0,0,0.0087890625,14.537109375,0)" xlink:href="#bd"/><use transform="matrix(0.0087890625,0,0,0.0087890625,24.0380859375,0)" xlink:href="#bq"/><use transform="matrix(0.0087890625,0,0,0.0087890625,29.4169921875,0)" xlink:href="#bO"/><use transform="matrix(0.0087890625,0,0,0.0087890625,41.326171875,0)" xlink:href="#bc"/><use transform="matrix(0.0087890625,0,0,0.0087890625,54.720703125,0)" xlink:href="#bd"/><use transform="matrix(0.0087890625,0,0,0.0087890625,64.2216796875,0)" xlink:href="#be"/><use transform="matrix(0.0087890625,0,0,0.0087890625,74.7158203125,0)" xlink:href="#bf"/><use transform="matrix(0.0087890625,0,0,0.0087890625,81.4921875,0)" xlink:href="#bP"/></g><g id="Z"><use transform="matrix(0.0087890625,0,0,0.0087890625,0,0)" xlink:href="#bd"/><use transform="matrix(0.0087890625,0,0,0.0087890625,9.5009765625,0)" xlink:href="#bL"/><use transform="matrix(0.0087890625,0,0,0.0087890625,19.7841796875,0)" xlink:href="#bu"/><use transform="matrix(0.0087890625,0,0,0.0087890625,30.5771484375,0)" xlink:href="#bf"/><use transform="matrix(0.0087890625,0,0,0.0087890625,37.0546875,0)" xlink:href="#be"/><use transform="matrix(0.0087890625,0,0,0.0087890625,47.548828125,0)" xlink:href="#bd"/><use transform="matrix(0.0087890625,0,0,0.0087890625,57.0498046875,0)" xlink:href="#bj"/></g><g id="aa"><use transform="matrix(0.0087890625,0,0,0.0087890625,0,0)" xlink:href="#bD"/><use transform="matrix(0.0087890625,0,0,0.0087890625,10.177734375,0)" xlink:href="#bh"/><use transform="matrix(0.0087890625,0,0,0.0087890625,14.537109375,0)" xlink:href="#bd"/><use transform="matrix(0.0087890625,0,0,0.0087890625,24.0380859375,0)" xlink:href="#bq"/><use transform="matrix(0.0087890625,0,0,0.0087890625,29.4169921875,0)" xlink:href="#bO"/><use transform="matrix(0.0087890625,0,0,0.0087890625,41.326171875,0)" xlink:href="#bp"/><use transform="matrix(0.0087890625,0,0,0.0087890625,52.875,0)" xlink:href="#bL"/><use transform="matrix(0.0087890625,0,0,0.0087890625,63.158203125,0)" xlink:href="#bu"/><use transform="matrix(0.0087890625,0,0,0.0087890625,73.951171875,0)" xlink:href="#bf"/><use transform="matrix(0.0087890625,0,0,0.0087890625,80.4287109375,0)" xlink:href="#be"/><use transform="matrix(0.0087890625,0,0,0.0087890625,90.9228515625,0)" xlink:href="#bP"/></g><g id="ab"><use transform="matrix(0.0087890625,0,0,0.0087890625,0,0)" xlink:href="#bv"/><use transform="matrix(0.0087890625,0,0,0.0087890625,4.359375,0)" xlink:href="#bh"/><use transform="matrix(0.0087890625,0,0,0.0087890625,8.71875,0)" xlink:href="#bd"/><use transform="matrix(0.0087890625,0,0,0.0087890625,18.2197265625,0)" xlink:href="#bq"/><use transform="matrix(0.0087890625,0,0,0.0087890625,24.1083984375,0)" xlink:href="#bk"/><use transform="matrix(0.0087890625,0,0,0.0087890625,29.2060546875,0)" xlink:href="#bq"/><use transform="matrix(0.0087890625,0,0,0.0087890625,34.9189453125,0)" xlink:href="#be"/><use transform="matrix(0.0087890625,0,0,0.0087890625,45.4130859375,0)" xlink:href="#bo"/><use transform="matrix(0.0087890625,0,0,0.0087890625,61.1806640625,0)" xlink:href="#bd"/><use transform="matrix(0.0087890625,0,0,0.0087890625,70.681640625,0)" xlink:href="#bj"/></g><g id="ac"><use transform="matrix(0.0087890625,0,0,0.0087890625,0,0)" xlink:href="#bD"/><use transform="matrix(0.0087890625,0,0,0.0087890625,10.177734375,0)" xlink:href="#bh"/><use transform="matrix(0.0087890625,0,0,0.0087890625,14.537109375,0)" xlink:href="#bd"/><use transform="matrix(0.0087890625,0,0,0.0087890625,24.0380859375,0)" xlink:href="#bq"/><use transform="matrix(0.0087890625,0,0,0.0087890625,29.4169921875,0)" xlink:href="#bO"/><use transform="matrix(0.0087890625,0,0,0.0087890625,41.326171875,0)" xlink:href="#bD"/><use transform="matrix(0.0087890625,0,0,0.0087890625,51.50390625,0)" xlink:href="#bh"/><use transform="matrix(0.0087890625,0,0,0.0087890625,55.86328125,0)" xlink:href="#bd"/><use transform="matrix(0.0087890625,0,0,0.0087890625,65.3642578125,0)" xlink:href="#bq"/><use transform="matrix(0.0087890625,0,0,0.0087890625,71.2529296875,0)" xlink:href="#bk"/><use transform="matrix(0.0087890625,0,0,0.0087890625,76.3505859375,0)" xlink:href="#bq"/><use transform="matrix(0.0087890625,0,0,0.0087890625,82.0634765625,0)" xlink:href="#be"/><use transform="matrix(0.0087890625,0,0,0.0087890625,92.5576171875,0)" xlink:href="#bo"/><use transform="matrix(0.0087890625,0,0,0.0087890625,108.3251953125,0)" xlink:href="#bd"/><use transform="matrix(0.0087890625,0,0,0.0087890625,117.826171875,0)" xlink:href="#bP"/></g><g id="ad"><use transform="matrix(0.0087890625,0,0,0.0087890625,0,0)" xlink:href="#bp"/><use transform="matrix(0.0087890625,0,0,0.0087890625,11.548828125,0)" xlink:href="#bL"/><use transform="matrix(0.0087890625,0,0,0.0087890625,21.83203125,0)" xlink:href="#bu"/><use transform="matrix(0.0087890625,0,0,0.0087890625,32.625,0)" xlink:href="#bf"/><use transform="matrix(0.0087890625,0,0,0.0087890625,39.1025390625,0)" xlink:href="#be"/></g><g id="ae"><use transform="matrix(0.0087890625,0,0,0.0087890625,0,0)" xlink:href="#bm"/><use transform="matrix(0.0087890625,0,0,0.0087890625,10.634765625,0)" xlink:href="#bn"/><use transform="matrix(0.0087890625,0,0,0.0087890625,20.7421875,0)" xlink:href="#bo"/><use transform="matrix(0.0087890625,0,0,0.0087890625,36.509765625,0)" xlink:href="#be"/><use transform="matrix(0.0087890625,0,0,0.0087890625,47.00390625,0)" xlink:href="#bp"/><use transform="matrix(0.0087890625,0,0,0.0087890625,58.552734375,0)" xlink:href="#bL"/><use transform="matrix(0.0087890625,0,0,0.0087890625,68.8359375,0)" xlink:href="#bu"/><use transform="matrix(0.0087890625,0,0,0.0087890625,79.62890625,0)" xlink:href="#bf"/><use transform="matrix(0.0087890625,0,0,0.0087890625,86.1064453125,0)" xlink:href="#be"/><use transform="matrix(0.0087890625,0,0,0.0087890625,96.6005859375,0)" xlink:href="#bj"/></g><g id="af"><use transform="matrix(0.0087890625,0,0,0.0087890625,0,0)" xlink:href="#bd"/><use transform="matrix(0.0087890625,0,0,0.0087890625,9.5009765625,0)" xlink:href="#bL"/><use transform="matrix(0.0087890625,0,0,0.0087890625,19.7841796875,0)" xlink:href="#bu"/><use transform="matrix(0.0087890625,0,0,0.0087890625,30.5771484375,0)" xlink:href="#bf"/><use transform="matrix(0.0087890625,0,0,0.0087890625,37.0546875,0)" xlink:href="#be"/><use transform="matrix(0.0087890625,0,0,0.0087890625,47.548828125,0)" xlink:href="#bj"/></g><g id="ag"><use transform="matrix(0.0087890625,0,0,0.0087890625,0,0)" xlink:href="#bk"/><use transform="matrix(0.0087890625,0,0,0.0087890625,4.833984375,0)" xlink:href="#bm"/><use transform="matrix(0.0087890625,0,0,0.0087890625,15.46875,0)" xlink:href="#bq"/><use transform="matrix(0.0087890625,0,0,0.0087890625,21.181640625,0)" xlink:href="#be"/><use transform="matrix(0.0087890625,0,0,0.0087890625,31.67578125,0)" xlink:href="#br"/><use transform="matrix(0.0087890625,0,0,0.0087890625,42.71484375,0)" xlink:href="#be"/><use transform="matrix(0.0087890625,0,0,0.0087890625,53.208984375,0)" xlink:href="#bf"/></g><path d="M65 0l393-574-370-544h210c88 136 192 297 267 435 67-142 176-302 264-435h206L661-564 1053 0H844c-94-144-206-310-287-458C484-308 366-142 273 0H65" id="bQ"/><g id="ah"><use transform="matrix(0.0087890625,0,0,0.0087890625,0,0)" xlink:href="#bo"/><use transform="matrix(0.0087890625,0,0,0.0087890625,15.767578125,0)" xlink:href="#bn"/><use transform="matrix(0.0087890625,0,0,0.0087890625,25.875,0)" xlink:href="#bQ"/><use transform="matrix(0.0087890625,0,0,0.0087890625,35.701171875,0)" xlink:href="#bp"/><use transform="matrix(0.0087890625,0,0,0.0087890625,47.25,0)" xlink:href="#bL"/><use transform="matrix(0.0087890625,0,0,0.0087890625,57.533203125,0)" xlink:href="#bu"/><use transform="matrix(0.0087890625,0,0,0.0087890625,68.326171875,0)" xlink:href="#bf"/><use transform="matrix(0.0087890625,0,0,0.0087890625,74.8037109375,0)" xlink:href="#be"/><use transform="matrix(0.0087890625,0,0,0.0087890625,85.2978515625,0)" xlink:href="#bj"/></g><g id="ai"><use transform="matrix(0.0087890625,0,0,0.0087890625,0,0)" xlink:href="#bo"/><use transform="matrix(0.0087890625,0,0,0.0087890625,15.767578125,0)" xlink:href="#bh"/><use transform="matrix(0.0087890625,0,0,0.0087890625,20.126953125,0)" xlink:href="#bm"/><use transform="matrix(0.0087890625,0,0,0.0087890625,30.76171875,0)" xlink:href="#bp"/><use transform="matrix(0.0087890625,0,0,0.0087890625,42.310546875,0)" xlink:href="#bL"/><use transform="matrix(0.0087890625,0,0,0.0087890625,52.59375,0)" xlink:href="#bu"/><use transform="matrix(0.0087890625,0,0,0.0087890625,63.38671875,0)" xlink:href="#bf"/><use transform="matrix(0.0087890625,0,0,0.0087890625,69.8642578125,0)" xlink:href="#be"/><use transform="matrix(0.0087890625,0,0,0.0087890625,80.3583984375,0)" xlink:href="#bj"/></g><g id="aj"><use transform="matrix(0.0087890625,0,0,0.0087890625,0,0)" xlink:href="#bs"/><use transform="matrix(0.0087890625,0,0,0.0087890625,11.021484375,0)" xlink:href="#bv"/><use transform="matrix(0.0087890625,0,0,0.0087890625,15.380859375,0)" xlink:href="#bn"/><use transform="matrix(0.0087890625,0,0,0.0087890625,25.224609375,0)" xlink:href="#bN"/><use transform="matrix(0.0087890625,0,0,0.0087890625,34.9892578125,0)" xlink:href="#be"/><use transform="matrix(0.0087890625,0,0,0.0087890625,45.4833984375,0)" xlink:href="#bf"/><use transform="matrix(0.0087890625,0,0,0.0087890625,52.259765625,0)" xlink:href="#bj"/></g><g id="ak"><use transform="matrix(0.0087890625,0,0,0.0087890625,0,0)" xlink:href="#by"/><use transform="matrix(0.0087890625,0,0,0.0087890625,13.4296875,0)" xlink:href="#bn"/><use transform="matrix(0.0087890625,0,0,0.0087890625,23.537109375,0)" xlink:href="#bo"/><use transform="matrix(0.0087890625,0,0,0.0087890625,39.3046875,0)" xlink:href="#be"/><use transform="matrix(0.0087890625,0,0,0.0087890625,49.798828125,0)" xlink:href="#bp"/><use transform="matrix(0.0087890625,0,0,0.0087890625,61.34765625,0)" xlink:href="#be"/><use transform="matrix(0.0087890625,0,0,0.0087890625,71.841796875,0)" xlink:href="#bf"/><use transform="matrix(0.0087890625,0,0,0.0087890625,78.8994140625,0)" xlink:href="#bw"/><use transform="matrix(0.0087890625,0,0,0.0087890625,88.6640625,0)" xlink:href="#be"/><use transform="matrix(0.0087890625,0,0,0.0087890625,99.158203125,0)" xlink:href="#bf"/></g><g id="al"><use transform="matrix(0.0087890625,0,0,0.0087890625,0,0)" xlink:href="#bD"/><use transform="matrix(0.0087890625,0,0,0.0087890625,10.177734375,0)" xlink:href="#bh"/><use transform="matrix(0.0087890625,0,0,0.0087890625,14.537109375,0)" xlink:href="#bd"/><use transform="matrix(0.0087890625,0,0,0.0087890625,24.0380859375,0)" xlink:href="#bq"/><use transform="matrix(0.0087890625,0,0,0.0087890625,29.9267578125,0)" xlink:href="#bk"/><use transform="matrix(0.0087890625,0,0,0.0087890625,35.0244140625,0)" xlink:href="#bq"/><use transform="matrix(0.0087890625,0,0,0.0087890625,40.7373046875,0)" xlink:href="#be"/><use transform="matrix(0.0087890625,0,0,0.0087890625,51.2314453125,0)" xlink:href="#bo"/></g><g id="am"><use transform="matrix(0.0087890625,0,0,0.0087890625,0,0)" xlink:href="#bm"/><use transform="matrix(0.0087890625,0,0,0.0087890625,10.634765625,0)" xlink:href="#bn"/><use transform="matrix(0.0087890625,0,0,0.0087890625,20.7421875,0)" xlink:href="#bo"/><use transform="matrix(0.0087890625,0,0,0.0087890625,36.509765625,0)" xlink:href="#be"/><use transform="matrix(0.0087890625,0,0,0.0087890625,47.00390625,0)" xlink:href="#bD"/><use transform="matrix(0.0087890625,0,0,0.0087890625,57.181640625,0)" xlink:href="#bh"/><use transform="matrix(0.0087890625,0,0,0.0087890625,61.541015625,0)" xlink:href="#bd"/><use transform="matrix(0.0087890625,0,0,0.0087890625,71.0419921875,0)" xlink:href="#bq"/><use transform="matrix(0.0087890625,0,0,0.0087890625,76.9306640625,0)" xlink:href="#bj"/></g><g id="an"><use transform="matrix(0.0087890625,0,0,0.0087890625,0,0)" xlink:href="#bv"/><use transform="matrix(0.0087890625,0,0,0.0087890625,4.359375,0)" xlink:href="#bh"/><use transform="matrix(0.0087890625,0,0,0.0087890625,8.71875,0)" xlink:href="#bd"/><use transform="matrix(0.0087890625,0,0,0.0087890625,18.2197265625,0)" xlink:href="#bq"/><use transform="matrix(0.0087890625,0,0,0.0087890625,24.1083984375,0)" xlink:href="#bj"/></g><g id="ao"><use transform="matrix(0.0087890625,0,0,0.0087890625,0,0)" xlink:href="#bD"/><use transform="matrix(0.0087890625,0,0,0.0087890625,10.177734375,0)" xlink:href="#bh"/><use transform="matrix(0.0087890625,0,0,0.0087890625,14.537109375,0)" xlink:href="#bd"/><use transform="matrix(0.0087890625,0,0,0.0087890625,24.0380859375,0)" xlink:href="#bq"/><use transform="matrix(0.0087890625,0,0,0.0087890625,29.4169921875,0)" xlink:href="#bO"/><use transform="matrix(0.0087890625,0,0,0.0087890625,41.326171875,0)" xlink:href="#bk"/><use transform="matrix(0.0087890625,0,0,0.0087890625,46.423828125,0)" xlink:href="#bq"/><use transform="matrix(0.0087890625,0,0,0.0087890625,52.13671875,0)" xlink:href="#be"/><use transform="matrix(0.0087890625,0,0,0.0087890625,62.630859375,0)" xlink:href="#bo"/><use transform="matrix(0.0087890625,0,0,0.0087890625,78.3984375,0)" xlink:href="#bP"/></g><g id="ap"><use transform="matrix(0.0087890625,0,0,0.0087890625,0,0)" xlink:href="#br"/><use transform="matrix(0.0087890625,0,0,0.0087890625,11.0390625,0)" xlink:href="#bn"/><use transform="matrix(0.0087890625,0,0,0.0087890625,21.146484375,0)" xlink:href="#bo"/><use transform="matrix(0.0087890625,0,0,0.0087890625,36.9140625,0)" xlink:href="#be"/><use transform="matrix(0.0087890625,0,0,0.0087890625,47.408203125,0)" xlink:href="#bd"/><use transform="matrix(0.0087890625,0,0,0.0087890625,56.9091796875,0)" xlink:href="#be"/><use transform="matrix(0.0087890625,0,0,0.0087890625,67.4033203125,0)" xlink:href="#bf"/><use transform="matrix(0.0087890625,0,0,0.0087890625,74.4609375,0)" xlink:href="#bw"/><use transform="matrix(0.0087890625,0,0,0.0087890625,84.2255859375,0)" xlink:href="#be"/><use transform="matrix(0.0087890625,0,0,0.0087890625,94.7197265625,0)" xlink:href="#bf"/><use transform="matrix(0.0087890625,0,0,0.0087890625,101.49609375,0)" xlink:href="#bj"/></g><g id="aq"><use transform="matrix(0.0087890625,0,0,0.0087890625,0,0)" xlink:href="#by"/><use transform="matrix(0.0087890625,0,0,0.0087890625,13.4296875,0)" xlink:href="#bn"/><use transform="matrix(0.0087890625,0,0,0.0087890625,23.537109375,0)" xlink:href="#bo"/><use transform="matrix(0.0087890625,0,0,0.0087890625,39.3046875,0)" xlink:href="#be"/><use transform="matrix(0.0087890625,0,0,0.0087890625,49.798828125,0)" xlink:href="#bp"/><use transform="matrix(0.0087890625,0,0,0.0087890625,61.34765625,0)" xlink:href="#be"/><use transform="matrix(0.0087890625,0,0,0.0087890625,71.841796875,0)" xlink:href="#bf"/><use transform="matrix(0.0087890625,0,0,0.0087890625,78.8994140625,0)" xlink:href="#bw"/><use transform="matrix(0.0087890625,0,0,0.0087890625,88.6640625,0)" xlink:href="#be"/><use transform="matrix(0.0087890625,0,0,0.0087890625,99.158203125,0)" xlink:href="#bf"/></g><g id="ar"><use transform="matrix(0.0087890625,0,0,0.0087890625,0,0)" xlink:href="#bc"/><use transform="matrix(0.0087890625,0,0,0.0087890625,13.39453125,0)" xlink:href="#bd"/><use transform="matrix(0.0087890625,0,0,0.0087890625,22.8955078125,0)" xlink:href="#be"/><use transform="matrix(0.0087890625,0,0,0.0087890625,33.3896484375,0)" xlink:href="#bf"/></g><g id="as"><use transform="matrix(0.0087890625,0,0,0.0087890625,0,0)" xlink:href="#bk"/><use transform="matrix(0.0087890625,0,0,0.0087890625,5.09765625,0)" xlink:href="#bq"/><use transform="matrix(0.0087890625,0,0,0.0087890625,10.810546875,0)" xlink:href="#be"/><use transform="matrix(0.0087890625,0,0,0.0087890625,21.3046875,0)" xlink:href="#bo"/></g><path d="M180 0v-1490h224l606 953c40 63 108 177 176 312-27-437-7-821-13-1265h190V0h-226C860-448 622-778 356-1262c27 476 11 792 15 1262H180" id="bR"/><g id="at"><use transform="matrix(0.0087890625,0,0,0.0087890625,0,0)" xlink:href="#bk"/><use transform="matrix(0.0087890625,0,0,0.0087890625,5.09765625,0)" xlink:href="#bq"/><use transform="matrix(0.0087890625,0,0,0.0087890625,10.810546875,0)" xlink:href="#be"/><use transform="matrix(0.0087890625,0,0,0.0087890625,21.3046875,0)" xlink:href="#bo"/><use transform="matrix(0.0087890625,0,0,0.0087890625,37.072265625,0)" xlink:href="#bR"/><use transform="matrix(0.0087890625,0,0,0.0087890625,50.6337890625,0)" xlink:href="#bn"/><use transform="matrix(0.0087890625,0,0,0.0087890625,60.7412109375,0)" xlink:href="#bo"/><use transform="matrix(0.0087890625,0,0,0.0087890625,76.5087890625,0)" xlink:href="#be"/><use transform="matrix(0.0087890625,0,0,0.0087890625,87.0029296875,0)" xlink:href="#bj"/></g><g id="au"><use transform="matrix(0.0087890625,0,0,0.0087890625,0,0)" xlink:href="#bi"/><use transform="matrix(0.0087890625,0,0,0.0087890625,11.021484375,0)" xlink:href="#be"/><use transform="matrix(0.0087890625,0,0,0.0087890625,21.515625,0)" xlink:href="#bd"/><use transform="matrix(0.0087890625,0,0,0.0087890625,31.0166015625,0)" xlink:href="#bL"/><use transform="matrix(0.0087890625,0,0,0.0087890625,41.2998046875,0)" xlink:href="#bf"/><use transform="matrix(0.0087890625,0,0,0.0087890625,48.357421875,0)" xlink:href="#bh"/><use transform="matrix(0.0087890625,0,0,0.0087890625,52.716796875,0)" xlink:href="#bs"/><use transform="matrix(0.0087890625,0,0,0.0087890625,63.73828125,0)" xlink:href="#bq"/><use transform="matrix(0.0087890625,0,0,0.0087890625,69.626953125,0)" xlink:href="#bh"/><use transform="matrix(0.0087890625,0,0,0.0087890625,73.986328125,0)" xlink:href="#bu"/><use transform="matrix(0.0087890625,0,0,0.0087890625,84.779296875,0)" xlink:href="#bm"/><use transform="matrix(0.0087890625,0,0,0.0087890625,95.4140625,0)" xlink:href="#bk"/><use transform="matrix(0.0087890625,0,0,0.0087890625,100.51171875,0)" xlink:href="#bq"/><use transform="matrix(0.0087890625,0,0,0.0087890625,106.224609375,0)" xlink:href="#be"/><use transform="matrix(0.0087890625,0,0,0.0087890625,116.71875,0)" xlink:href="#bo"/><use transform="matrix(0.0087890625,0,0,0.0087890625,132.486328125,0)" xlink:href="#bj"/></g><g id="av"><use transform="matrix(0.0087890625,0,0,0.0087890625,0,0)" xlink:href="#bD"/><use transform="matrix(0.0087890625,0,0,0.0087890625,10.177734375,0)" xlink:href="#bh"/><use transform="matrix(0.0087890625,0,0,0.0087890625,14.537109375,0)" xlink:href="#bd"/><use transform="matrix(0.0087890625,0,0,0.0087890625,24.0380859375,0)" xlink:href="#bq"/><use transform="matrix(0.0087890625,0,0,0.0087890625,29.9267578125,0)" xlink:href="#bk"/><use transform="matrix(0.0087890625,0,0,0.0087890625,35.0244140625,0)" xlink:href="#bq"/><use transform="matrix(0.0087890625,0,0,0.0087890625,40.7373046875,0)" xlink:href="#be"/><use transform="matrix(0.0087890625,0,0,0.0087890625,51.2314453125,0)" xlink:href="#bo"/></g></defs></g></svg>