<svg width="24" height="25" viewBox="0 0 24 25" fill="none" xmlns="http://www.w3.org/2000/svg">
<path d="M18 6.50394V7.25394H18.75V6.50394H18ZM5.07107 7.25394H18V5.75394H5.07107V7.25394ZM18.75 6.50394V4.80996H17.25V6.50394H18.75ZM15.6111 2.0876L4.81353 3.63011L5.02566 5.11503L15.8232 3.57252L15.6111 2.0876ZM4.81353 3.63011C3.91638 3.75827 3.25 4.52662 3.25 5.43287H4.75C4.75 5.27309 4.86749 5.13763 5.02566 5.11503L4.81353 3.63011ZM18.75 4.80996C18.75 3.13645 17.2678 1.85093 15.6111 2.0876L15.8232 3.57252C16.5763 3.46495 17.25 4.04927 17.25 4.80996H18.75ZM5.07107 5.75394C4.89375 5.75394 4.75 5.61019 4.75 5.43287H3.25C3.25 6.43862 4.06532 7.25394 5.07107 7.25394V5.75394Z" fill="white"/>
<path d="M8 12.5039H16" stroke="white" stroke-width="1.5" stroke-linecap="round"/>
<path d="M8 16.0039H13.5" stroke="white" stroke-width="1.5" stroke-linecap="round"/>
<path d="M4 6.50391V19.5039C4 21.1608 5.34315 22.5039 7 22.5039H17C18.6569 22.5039 20 21.1608 20 19.5039V14.5039M4 6.50391V5.50391M4 6.50391H17C18.6569 6.50391 20 7.84706 20 9.50391V10.5039" stroke="white" stroke-width="1.5" stroke-linecap="round"/>
</svg>
