<svg width="516" height="395" viewBox="0 0 516 395" fill="none" xmlns="http://www.w3.org/2000/svg">
<g filter="url(#filter0_d_8_16)">
<path d="M5.20861 190.501C23.2086 100.101 42.0419 66.1675 49.2086 60.5008C61.6086 23.3008 96.7086 22.3341 112.709 26.5008C135.109 2.5008 170.709 3.0008 187.709 3.0008V176.501H116.209L98.2086 216.501C91.7086 226.834 76.5086 248.601 67.7086 253.001C58.9086 257.401 41.3753 260.501 33.7086 261.501C25.8753 259.501 9.20861 252.501 5.20861 240.501C1.20861 228.501 3.54194 202.168 5.20861 190.501Z" fill="#6B5B76"/>
<path d="M61.2086 107.001C59.6086 134.201 90.2086 180.667 105.709 200.501V199.501L116.209 176.501H187.709V93.0008C178.509 93.4008 161.875 110.501 154.709 119.001C168.709 83.4008 160.542 60.5008 154.709 53.5008C147.375 43.5008 127.309 25.1008 105.709 31.5008C84.1085 37.9008 73.7086 53.5008 71.2086 60.5008C68.5419 64.6675 62.8086 79.8008 61.2086 107.001Z" fill="white"/>
<path d="M149.709 124.107C170.786 98.4219 183.824 92.0008 187.709 92.0008V145.001C187.709 137.255 162.375 127.844 149.709 124.107Z" fill="#FDB324"/>
<path d="M370.209 190.504C352.209 100.104 333.375 66.1706 326.209 60.504C313.809 23.304 278.709 22.3373 262.709 26.504C240.309 2.50397 203.209 3.00397 187.709 3.00397V176.504H259.209L277.209 216.504C283.709 226.837 298.909 248.604 307.709 253.004C316.509 257.404 334.042 260.504 341.709 261.504C349.542 259.504 366.209 252.504 370.209 240.504C374.209 228.504 371.875 202.171 370.209 190.504Z" fill="#6B5B76"/>
<path d="M314.209 107.004C315.809 134.204 285.209 180.671 269.709 200.504V199.504L259.209 176.504H187.709V93.004C196.909 93.404 213.542 110.504 220.709 119.004C206.709 83.404 214.875 60.504 220.709 53.504C228.042 43.504 248.109 25.104 269.709 31.504C291.309 37.904 301.709 53.504 304.209 60.504C306.875 64.6706 312.609 79.804 314.209 107.004Z" fill="white"/>
<path d="M225.709 124.107C204.631 98.422 191.593 92.0009 187.709 92.0009V145.001C187.709 137.255 213.042 127.844 225.709 124.107Z" fill="#C58432"/>
<path d="M105.709 75.0008V120.001" stroke="#534F55" stroke-width="16" stroke-linecap="round"/>
<path d="M82.7086 98.0008H127.709" stroke="#534F55" stroke-width="16" stroke-linecap="round"/>
<ellipse cx="258.709" cy="98.0008" rx="16" ry="8" fill="#534F55"/>
<path d="M28.92 355.344C19.832 355.344 13.56 353.232 10.104 349.008C7.736 346.064 6.552 342.032 6.552 336.912C6.552 334.544 6.808 331.952 7.32 329.136L10.68 309.936C13.688 292.784 24.184 284.208 42.168 284.208C49.592 284.208 55.224 285.808 59.064 289.008C62.904 292.144 64.824 296.464 64.824 301.968C64.824 304.208 64.504 306.48 63.864 308.784C63.288 311.088 62.712 312.816 62.136 313.968L61.176 315.696H44.184C45.848 313.392 46.68 310.736 46.68 307.728C46.68 301.968 44.28 299.088 39.48 299.088C33.016 299.088 29.144 302.832 27.864 310.32L24.6 328.752C24.28 330.48 24.12 332.176 24.12 333.84C24.12 338.256 26.712 340.464 31.896 340.464C37.144 340.464 40.504 337.84 41.976 332.592H34.104L36.024 321.936H61.464L59.928 330.192L59.448 332.976C56.76 347.888 46.584 355.344 28.92 355.344ZM113.728 339.216C113.728 340.88 114.56 341.712 116.224 341.712C117.952 341.712 119.392 341.392 120.544 340.752L120.064 351.6C116.992 354.096 113.536 355.344 109.696 355.344C102.464 355.344 98.5278 352.56 97.8878 346.992C94.0478 352.56 88.8638 355.344 82.3358 355.344C75.8718 355.344 71.6798 353.872 69.7598 350.928C68.4798 349.072 67.8398 346.96 67.8398 344.592C67.8398 342.224 68.0318 340.048 68.4158 338.064L73.7918 307.824H90.1118L85.5998 333.36C85.4078 334.512 85.3118 335.664 85.3118 336.816C85.3118 339.888 87.0398 341.424 90.4958 341.424C93.3758 341.424 95.6798 340.432 97.4078 338.448L102.88 307.824H119.2L113.824 338.064C113.76 338.448 113.728 338.832 113.728 339.216ZM146.774 341.712C148.246 341.712 149.558 341.392 150.71 340.752L150.23 351.6C147.222 354.096 143.798 355.344 139.958 355.344C134.134 355.344 130.358 354 128.63 351.312C127.478 349.52 126.902 347.632 126.902 345.648C126.902 343.6 127.03 341.808 127.286 340.272L133.046 307.824H149.366L143.99 338.064C143.926 338.448 143.894 338.8 143.894 339.12C143.894 340.848 144.854 341.712 146.774 341.712ZM134.966 292.176C134.966 288.08 135.862 285.104 137.654 283.248C139.51 281.328 142.358 280.368 146.198 280.368C151.574 280.368 154.262 282.736 154.262 287.472C154.262 291.504 153.334 294.448 151.478 296.304C149.686 298.16 146.838 299.088 142.934 299.088C137.622 299.088 134.966 296.784 134.966 292.176ZM236.1 341.712C237.572 341.712 238.884 341.392 240.036 340.752L239.556 351.6C236.548 354.096 233.124 355.344 229.284 355.344C220.58 355.344 216.228 351.696 216.228 344.4C216.228 343.12 216.356 341.744 216.612 340.272L218.628 328.464C218.82 327.312 218.916 326.16 218.916 325.008C218.916 321.936 217.22 320.4 213.828 320.4C210.5 320.4 207.876 321.712 205.956 324.336L200.772 354H184.452L188.964 328.464C189.156 327.312 189.252 326.16 189.252 325.008C189.252 321.936 187.524 320.4 184.068 320.4C181.316 320.4 178.948 321.456 176.964 323.568L171.588 354H155.268L163.428 307.824H178.596L177.54 313.584C181.38 308.848 186.244 306.48 192.132 306.48C200.452 306.48 205.188 309.232 206.34 314.736C210.18 309.232 215.3 306.48 221.7 306.48C228.164 306.48 232.356 307.92 234.276 310.8C235.556 312.784 236.196 314.96 236.196 317.328C236.196 319.696 236.036 321.84 235.716 323.76L233.316 338.064C233.252 338.448 233.22 338.8 233.22 339.12C233.22 340.848 234.18 341.712 236.1 341.712ZM263.723 334.32C263.723 338.736 266.891 340.944 273.227 340.944C279.627 340.944 282.827 338.96 282.827 334.992C282.827 332.88 281.739 331.152 279.563 329.808C277.387 328.464 274.731 327.344 271.595 326.448C268.523 325.552 265.419 324.528 262.283 323.376C259.211 322.16 256.587 320.304 254.411 317.808C252.235 315.248 251.147 312.08 251.147 308.304C251.147 292.24 261.483 284.208 282.155 284.208C289.707 284.208 295.403 285.648 299.243 288.528C303.147 291.344 305.099 295.28 305.099 300.336C305.099 302.192 304.843 303.984 304.331 305.712C303.883 307.376 303.403 308.56 302.891 309.264L302.123 310.416H285.131C286.539 308.944 287.243 307.088 287.243 304.848C287.243 300.688 284.523 298.608 279.083 298.608C272.235 298.608 268.811 300.784 268.811 305.136C268.811 307.312 269.899 309.04 272.075 310.32C274.251 311.6 276.875 312.624 279.947 313.392C283.083 314.096 286.219 314.992 289.355 316.08C292.491 317.168 295.147 318.992 297.323 321.552C299.499 324.048 300.587 327.312 300.587 331.344C300.587 339.472 298.155 345.52 293.291 349.488C288.427 353.392 280.939 355.344 270.827 355.344C260.715 355.344 253.803 353.552 250.091 349.968C247.339 347.28 245.963 343.568 245.963 338.832C245.963 337.04 246.155 335.088 246.539 332.976L246.827 331.44H264.107L263.915 332.592C263.787 333.232 263.723 333.808 263.723 334.32ZM327.317 355.344C314.005 355.344 307.349 350.736 307.349 341.52C307.349 340.24 307.477 338.864 307.733 337.392L309.749 325.488C310.773 319.344 313.557 314.64 318.101 311.376C322.709 308.112 328.533 306.448 335.573 306.384C349.205 306.384 356.021 311.12 356.021 320.592C356.021 322.64 355.765 324.496 355.253 326.16C354.805 327.76 354.325 328.848 353.812 329.424L353.045 330.384H336.725C338.325 328.976 339.125 327.312 339.125 325.392C339.125 321.936 337.397 320.208 333.941 320.208C331.893 320.208 330.133 320.816 328.661 322.032C327.189 323.248 326.229 325.104 325.781 327.6L324.533 334.608C324.405 335.248 324.341 335.856 324.341 336.432C324.341 339.824 326.453 341.52 330.677 341.52C332.085 341.52 333.333 341.072 334.421 340.176C335.573 339.28 336.245 338.288 336.437 337.2L352.373 337.392C350.261 349.36 341.909 355.344 327.317 355.344ZM389.41 306.48C396.322 306.48 401.538 307.984 405.058 310.992C407.81 313.36 409.186 316.656 409.186 320.88C409.186 322.288 409.026 323.824 408.706 325.488L406.69 336.72C405.474 343.504 402.626 348.304 398.146 351.12C393.73 353.936 387.81 355.344 380.386 355.344C372.962 355.344 367.522 353.936 364.066 351.12C361.506 349.008 360.226 345.84 360.226 341.616C360.226 340.144 360.386 338.512 360.706 336.72L362.722 325.488C364.962 312.816 373.858 306.48 389.41 306.48ZM392.002 327.408C392.13 326.768 392.194 325.968 392.194 325.008C392.194 323.984 391.778 322.864 390.946 321.648C390.114 320.432 388.642 319.824 386.53 319.824C384.482 319.824 382.754 320.528 381.346 321.936C379.938 323.28 379.042 325.104 378.658 327.408L377.41 334.608C377.282 335.248 377.218 336.08 377.218 337.104C377.218 338.064 377.634 339.12 378.466 340.272C379.298 341.424 380.738 342 382.786 342C384.898 342 386.658 341.296 388.066 339.888C389.474 338.416 390.37 336.656 390.754 334.608L392.002 327.408ZM461.453 317.616C461.453 319.792 461.069 321.904 460.301 323.952C459.597 326 458.893 327.504 458.189 328.464L457.133 329.808H442.637C444.237 328.336 445.037 326.512 445.037 324.336C445.037 323.184 444.653 322.256 443.885 321.552C443.181 320.784 442.189 320.4 440.909 320.4C438.733 320.4 436.845 321.488 435.245 323.664L429.869 354H413.549L421.709 307.824H436.877L435.725 314.256C439.373 309.072 443.789 306.48 448.973 306.48C453.133 306.48 456.237 307.472 458.285 309.456C460.397 311.44 461.453 314.16 461.453 317.616ZM483.598 355.344C470.286 355.344 463.63 350.736 463.63 341.52C463.63 340.24 463.758 338.864 464.014 337.392L466.03 325.488C467.118 319.344 469.934 314.64 474.478 311.376C479.086 308.048 485.166 306.384 492.718 306.384C505.582 306.384 512.014 311.248 512.014 320.976C512.014 322.384 511.886 323.92 511.63 325.584L510.478 332.4H481.198L480.814 334.608C480.686 335.376 480.622 336.08 480.622 336.72C480.622 340.24 482.702 342 486.862 342C488.398 342 489.71 341.52 490.798 340.56C491.886 339.6 492.526 338.48 492.718 337.2L508.654 337.392C506.542 349.36 498.19 355.344 483.598 355.344ZM495.118 326.544C495.374 325.456 495.502 324.464 495.502 323.568C495.502 322.608 495.086 321.648 494.254 320.688C493.422 319.728 492.078 319.248 490.222 319.248C488.43 319.248 486.766 319.856 485.23 321.072C483.758 322.288 482.734 324.112 482.158 326.544H495.118Z" fill="url(#paint0_linear_8_16)"/>
</g>
<defs>
<filter id="filter0_d_8_16" x="0" y="0" width="515.014" height="358.344" filterUnits="userSpaceOnUse" color-interpolation-filters="sRGB">
<feFlood flood-opacity="0" result="BackgroundImageFix"/>
<feColorMatrix in="SourceAlpha" type="matrix" values="0 0 0 0 0 0 0 0 0 0 0 0 0 0 0 0 0 0 127 0" result="hardAlpha"/>
<feOffset/>
<feGaussianBlur stdDeviation="1.5"/>
<feComposite in2="hardAlpha" operator="out"/>
<feColorMatrix type="matrix" values="0 0 0 0 0 0 0 0 0 0 0 0 0 0 0 0 0 0 0.25 0"/>
<feBlend mode="normal" in2="BackgroundImageFix" result="effect1_dropShadow_8_16"/>
<feBlend mode="normal" in="SourceGraphic" in2="effect1_dropShadow_8_16" result="shape"/>
</filter>
<linearGradient id="paint0_linear_8_16" x1="3" y1="324.5" x2="516" y2="324.5" gradientUnits="userSpaceOnUse">
<stop stop-color="#6B5B76"/>
<stop offset="1" stop-color="#5E5799" stop-opacity="0"/>
</linearGradient>
</defs>
</svg>
