<svg width="370" height="259" viewBox="0 0 370 259" fill="none" xmlns="http://www.w3.org/2000/svg">
<path d="M2.49999 187.501C20.5 97.1008 39.3333 63.1675 46.5 57.5008C58.9 20.3008 94 19.3341 110 23.5008C132.4 -0.499197 168 0.000801086 185 0.000799632V173.501H113.5L95.5 213.501C89 223.834 73.8 245.601 65 250.001C56.2 254.401 38.6667 257.501 31 258.501C23.1667 256.501 6.49999 249.501 2.49999 237.501C-1.50001 225.501 0.833322 199.168 2.49999 187.501Z" fill="#6B5B76"/>
<path d="M58.4999 104.001C56.8999 131.201 87.5 177.667 103 197.501V196.501L113.5 173.501H185V90.0008C175.8 90.4008 159.167 107.501 152 116.001C166 80.4008 157.833 57.5008 152 50.5008C144.667 40.5008 124.6 22.1008 103 28.5008C81.3999 34.9008 71 50.5008 68.5 57.5008C65.8333 61.6675 60.0999 76.8008 58.4999 104.001Z" fill="white"/>
<path d="M147 121.107C168.077 95.4219 181.116 89.0008 185 89.0008V142.001C185 134.255 159.667 124.844 147 121.107Z" fill="#FDB324"/>
<path d="M367.5 187.501C349.5 97.1008 330.667 63.1675 323.5 57.5008C311.1 20.3008 276 19.3341 260 23.5008C237.6 -0.499199 200.5 0.000799697 185 0.000800036V173.501H256.5L274.5 213.501C281 223.834 296.2 245.601 305 250.001C313.8 254.401 331.333 257.501 339 258.501C346.833 256.501 363.5 249.501 367.5 237.501C371.5 225.501 369.167 199.167 367.5 187.501Z" fill="#6B5B76"/>
<path d="M311.5 104.001C313.1 131.201 282.5 177.667 267 197.501V196.501L256.5 173.501H185V90.0008C194.2 90.4008 210.833 107.501 218 116.001C204 80.4008 212.167 57.5008 218 50.5008C225.333 40.5008 245.4 22.1008 267 28.5008C288.6 34.9008 299 50.5008 301.5 57.5008C304.167 61.6675 309.9 76.8008 311.5 104.001Z" fill="white"/>
<path d="M223 121.103C201.923 95.4188 188.884 88.9977 185 88.9977V141.998C185 134.251 210.333 124.841 223 121.103Z" fill="#C58432"/>
<path d="M185 173V142L188.5 143M185 142L198.5 153" stroke="white"/>
<path d="M185 89L186 0" stroke="#6B5B76"/>
<path d="M103 72.0008V117.001" stroke="#534F55" stroke-width="16" stroke-linecap="round"/>
<path d="M80 95.0008H125" stroke="#534F55" stroke-width="16" stroke-linecap="round"/>
<ellipse cx="256" cy="95.0008" rx="16" ry="8" fill="#534F55"/>
</svg>
